<?xml version="1.0" encoding="utf-8"?>
<!-- Generator: Adobe Illustrator 26.3.1, SVG Export Plug-In . SVG Version: 6.00 Build 0)  -->
<svg version="1.1" id="Layer_1" xmlns="http://www.w3.org/2000/svg" xmlns:xlink="http://www.w3.org/1999/xlink" x="0px" y="0px"
	 viewBox="0 0 2880 976" style="enable-background:new 0 0 2880 976;" xml:space="preserve">
<style type="text/css">
	.st0{fill-rule:evenodd;clip-rule:evenodd;fill:#57B6E6;}
	.st1{fill-rule:evenodd;clip-rule:evenodd;fill:#7FC8ED;}
	.st2{fill-rule:evenodd;clip-rule:evenodd;fill:#D2ECF9;}
	.st3{fill-rule:evenodd;clip-rule:evenodd;fill:#394655;}
	.st4{fill-rule:evenodd;clip-rule:evenodd;fill:#0F161F;}
	.st5{fill-rule:evenodd;clip-rule:evenodd;fill:#51ABD9;}
	.st6{fill-rule:evenodd;clip-rule:evenodd;fill:#ED1E3F;}
	.st7{fill-rule:evenodd;clip-rule:evenodd;fill:#FFFFFF;}
	.st8{fill-rule:evenodd;clip-rule:evenodd;fill:#A9DBF4;}
	.st9{fill-rule:evenodd;clip-rule:evenodd;fill:#F27677;}
	.st10{fill-rule:evenodd;clip-rule:evenodd;fill:#6B7480;}
	.st11{fill-rule:evenodd;clip-rule:evenodd;fill:#303B45;}
	.st12{fill-rule:evenodd;clip-rule:evenodd;fill:#DA7795;}
	.st13{fill-rule:evenodd;clip-rule:evenodd;fill:#F6A2A0;}
	.st14{fill:#51ABD9;}
	.st15{fill:#394655;}
	.st16{fill-rule:evenodd;clip-rule:evenodd;fill:#FFDA88;}
	.st17{fill-rule:evenodd;clip-rule:evenodd;fill:#F9C1C0;}
	.st18{fill-rule:evenodd;clip-rule:evenodd;fill:#E4F2F8;}
	.st19{fill:#FFFFFF;}
</style>
<rect class="st0" width="2880" height="976"/>
<path class="st1" d="M985.8,975.8h907.9c135.3-123.3,220.2-301,220.2-498.5c0-186.5-75.7-355.3-198.1-477.4H963.6
	C841.3,122.1,765.5,290.9,765.5,477.4C765.5,674.9,850.5,852.5,985.8,975.8z"/>
<g>
	<path class="st2" d="M2196.3,0l106.2,346.1c4.2,13.7,19.1,23.9,33,22.6l544.5-49.1V0H2196.3z"/>
	<path class="st3" d="M2217.6,0l102.9,335.3c4.1,13.3,18.5,23.1,32,21.9l527.5-47.6V0H2217.6z"/>
	<g>
		<path class="st4" d="M2247.3,0l98.6,321.3c3.9,12.7,17.6,22.1,30.5,20.9l503.6-45.5V0H2247.3z"/>
		<path class="st5" d="M2265.2,0l92.5,301.6c3.9,12.7,17.6,22.1,30.5,20.9l491.8-44.4V0H2265.2z"/>
		<path class="st4" d="M2392.7,0l71.4,232.7c3,9.7,13.5,17,23.5,16.1l392.5-35.4V0H2392.7z"/>
	</g>
	<path class="st5" d="M2586.1,0l43.1,140.4c1.8,5.9,8.2,10.3,14.2,9.7l236.6-21.4V0H2586.1z"/>
	<path class="st4" d="M2703.6,46.9l-67.1,3.3c-3.5,0.2-5.5,3.2-4.5,6.6l0,0c1.1,3.5,4.8,6.2,8.3,6l67.1-3.3c3.5-0.2,5.5-3.2,4.5-6.6
		l0,0C2710.9,49.4,2707.1,46.7,2703.6,46.9z"/>
	<path class="st4" d="M2710.1,68.3l-67.1,3.3c-3.5,0.2-5.5,3.2-4.5,6.6l0,0c1.1,3.5,4.8,6.2,8.3,6l67.1-3.3c3.5-0.2,5.5-3.2,4.5-6.6
		l0,0C2717.4,70.8,2713.6,68.1,2710.1,68.3z"/>
	<path class="st4" d="M2259.7,0c-7.7,74.9-41.3,142.1-91.8,192.6c-57.7,57.7-137.5,93.5-225.7,93.5c-88.1,0-167.9-35.7-225.7-93.5
		c-50.4-50.4-84-117.7-91.8-192.6h16.2c7.6,70.5,39.5,133.7,87,181.2c54.8,54.8,130.6,88.8,214.3,88.8c83.7,0,159.4-33.9,214.3-88.8
		c47.5-47.5,79.3-110.7,87-181.2H2259.7z"/>
	<path class="st4" d="M2216.9,110.4L2216.9,110.4c7.1,4.8,8.9,14.6,4.1,21.7l-28.5,41.7c-4.8,7.1-14.6,8.9-21.7,4.1l0,0
		c-7.1-4.8-8.9-14.6-4.1-21.7l28.5-41.7C2200,107.4,2209.8,105.6,2216.9,110.4z"/>
	<path class="st4" d="M2880,510.3c-151.7-3.1-288.8-65.9-388.8-165.8c-90.1-90.1-149.9-210.3-163.2-344.2h28.7
		c13.1,126,69.8,239.2,154.7,324c94.8,94.8,224.7,154.3,368.6,157.4V510.3z"/>
	<g>
		<path class="st4" d="M2880,698.7c-178-22-337.7-103.6-458.2-224.2c-124.3-124.3-207.1-289.9-226-474.5h39.8
			c18.8,173.7,97.1,329.5,214.2,446.5C2563.2,559.9,2712.9,637,2880,658.8V698.7z"/>
		<path class="st4" d="M2744.9,658.7L2744.9,658.7c3-18.9,21-31.9,39.9-28.8l95.3,15.3v70.4l-106.3-17.1
			C2754.8,695.5,2741.9,677.6,2744.9,658.7z"/>
	</g>
	<g>
		<g>
			<g>
				<path class="st6" d="M2525.2,221.5c17.4,0,31.6,14.1,31.6,31.6c0,17.4-14.1,31.6-31.6,31.6c-17.5,0-31.6-14.1-31.6-31.6
					C2493.6,235.7,2507.7,221.5,2525.2,221.5z"/>
			</g>
			<path class="st7" d="M2525.2,239.6c7.5,0,13.5,6.1,13.5,13.5c0,7.5-6,13.5-13.5,13.5c-7.5,0-13.5-6.1-13.5-13.5
				C2511.7,245.7,2517.7,239.6,2525.2,239.6z"/>
		</g>
		<path class="st7" d="M2460.8,173.9h21.2v6.3h-18.1v16.4h-6.3v-22.7H2460.8L2460.8,173.9z M2463.9,528.3v16.4h18.1v6.3h-24.3v-22.7
			H2463.9L2463.9,528.3z M2569.3,173.9h24.3v22.7h-6.3v-16.4h-18.1V173.9L2569.3,173.9z M2593.6,528.3V551h-24.3v-6.3h18.1v-16.4
			H2593.6z"/>
	</g>
</g>
<path class="st8" d="M963.7,0C880.6,82.9,819,187.2,788,304.1l343.2,31c21,1.9,43.4-13.4,49.7-34L1273.3,0H963.7z"/>
<g>
	<path class="st1" d="M952,0L791.4,523.6c-6.3,20.6-28.7,35.9-49.7,34L0,490.7V0H952z"/>
	<path class="st0" d="M1087.9,0c-8.7,84.8-46.7,160.9-103.8,217.9c-65.3,65.3-155.5,105.7-255.2,105.7c-38.2,0-74.9-5.9-109.4-16.9
		c-4.6,3-10.5,3.8-16,1.8l-53.4-20.3c-7.7-2.9-12.1-10.7-11.2-18.5c-23.7-14.7-45.5-32.1-65.1-51.7C416.7,160.9,378.7,84.8,370,0
		h18.3c8.6,79.7,44.6,151.3,98.4,205.1c19.1,19.1,40.4,35.9,63.5,50.1c3.9-1.5,8.4-1.6,12.5,0l53.4,20.3c6.4,2.4,10.6,8.2,11.3,14.6
		c32.1,9.9,66.2,15.3,101.6,15.3c94.6,0,180.3-38.4,242.3-100.4C1025,151.3,1061,79.7,1069.6,0H1087.9z"/>
	<path class="st0" d="M1411.5,0c-5.1,49.3-19.8,95.8-42.4,137.4c1.5,5.1,0.8,10.7-2.3,15.4l-32.9,48.2c-3.5,5.2-9.3,7.9-15.2,7.8
		c-4.3,4.7-8.6,9.3-13.1,13.8c-66.7,66.7-158.8,107.9-260.6,107.9c-101.8,0-193.9-41.3-260.6-107.9C726,164.3,687.2,86.6,678.3,0
		H697c8.8,81.5,45.5,154.5,100.4,209.5c63.3,63.3,150.8,102.5,247.5,102.5c96.6,0,184.1-39.2,247.5-102.5c3.5-3.5,7-7.1,10.4-10.8
		c-2.7-5.6-2.4-12.5,1.3-18l32.9-48.2c4-5.9,11.1-8.7,17.7-7.6c20-38,33.2-80.2,38.1-124.8H1411.5z"/>
	<path class="st2" d="M660.5,0L558,334.1c-4.1,13.2-18.4,23.1-31.9,21.8L0,308.4V0H660.5z"/>
	<path class="st3" d="M641.6,0l-99.6,324.5c-3.9,12.9-17.9,22.4-31,21.2L0,299.6V0H641.6z"/>
	<path class="st4" d="M621.2,0l-96.4,314.1c-3.8,12.4-17.3,21.7-30,20.5L0,290V0H621.2z"/>
	<path class="st5" d="M603.6,0l-90.9,296.4c-3.8,12.4-17.3,21.7-30,20.6L0,273.3V0H603.6z"/>
	<path class="st4" d="M478.3,0l-70.1,228.7c-2.9,9.6-13.3,16.7-23.1,15.8L0,209.7V0H478.3z"/>
	<path class="st5" d="M288.2,0l-42.3,138c-1.8,5.8-8.1,10.1-14,9.6L0,126.6V0H288.2z"/>
	<path class="st4" d="M182.4,46.1l65.9,3.2c3.5,0.2,5.4,3.1,4.4,6.5v0c-1,3.4-4.7,6.1-8.2,5.9l-65.9-3.2c-3.5-0.2-5.4-3.1-4.4-6.5v0
		C175.3,48.6,179,45.9,182.4,46.1z"/>
	<path class="st4" d="M176.1,67.1l65.9,3.2c3.5,0.2,5.4,3.1,4.4,6.5v0c-1,3.4-4.7,6.1-8.2,5.9l-65.9-3.2c-3.5-0.2-5.4-3.1-4.4-6.5v0
		C168.9,69.6,172.6,66.9,176.1,67.1z"/>
	<path class="st4" d="M1004.8,0c-7.7,74.9-41.3,142.1-91.8,192.6C855.3,250.3,775.5,286,687.4,286c-88.1,0-167.9-35.7-225.7-93.5
		C411.3,142.1,377.7,74.9,370,0h16.2c7.6,70.5,39.5,133.7,87,181.2c54.8,54.8,130.6,88.8,214.3,88.8c83.7,0,159.4-33.9,214.3-88.8
		C949.2,133.7,981,70.5,988.6,0H1004.8z"/>
	<path class="st4" d="M492.9,206.7L492.9,206.7c-10.4,10.7-27.6,10.9-38.3,0.6l-63-61.1c-10.7-10.4-10.9-27.6-0.6-38.3l0,0
		c10.4-10.7,27.6-11,38.3-0.6l63,61.1C503,178.7,503.3,196,492.9,206.7z"/>
	<g>
		<path class="st4" d="M0,586.1c56.3-32.6,107.9-72.4,153.6-118.1c118-118,196.5-275.6,213.9-451.2h-37.6
			c-17.2,165.2-91.5,313.5-202.7,424.7C88.9,479.9,46.2,513.7,0,542.4V586.1z"/>
		<path class="st4" d="M0,420c4.4-5.7,8.7-11.4,12.9-17.3C90.2,295.7,144,156,162.7,0h-27.4C117.4,141.5,69.1,268.4,0,367.5V420z"/>
	</g>
</g>
<g>
	<path class="st6" d="M528.6,12.6h28.7v6.9H532v651.9h25.2v6.9h-32.1V12.6H528.6L528.6,12.6z M2246.1,12.6h32.1v665.6h-32.1v-6.9
		h25.2V19.5h-25.2V12.6z"/>
</g>
<path class="st7" d="M2297.9,324.3c95.9,0,159,103.2,140.9,230.5c-18.1,127.3-110.6,230.5-206.5,230.5s-159-103.2-140.9-230.5
	C2109.5,427.5,2202,324.3,2297.9,324.3L2297.9,324.3z M2290.8,374.3c-75.1,0-147.6,80.8-161.7,180.5
	c-14.2,99.7,35.2,180.5,110.3,180.5c75.1,0,147.6-80.8,161.8-180.5C2415.3,455.1,2365.9,374.3,2290.8,374.3z"/>
<path class="st5" d="M2397.8,456.2L2397.8,456.2c20,0,34.5,16.4,32.1,36.4l-5.2,44.3c-2.3,20-20.6,36.4-40.6,36.4h0
	c-20,0-34.4-16.4-32.1-36.4l5.2-44.3C2359.5,472.6,2377.8,456.2,2397.8,456.2z"/>
<path class="st5" d="M2157.7,499.4L2157.7,499.4c20,0,34.5,16.4,32.1,36.4l-5.2,44.3c-2.3,20-20.6,36.4-40.6,36.4h0
	c-20,0-34.5-16.4-32.1-36.4l5.2-44.3C2119.4,515.7,2137.7,499.4,2157.7,499.4z"/>
<path class="st5" d="M2254.5,477.8L2254.5,477.8c17.2,0,29.6,14.1,27.6,31.3l-4.5,38.1c-2,17.2-17.7,31.3-34.9,31.3h0
	c-17.2,0-29.6-14.1-27.6-31.3l4.5-38.1C2221.6,491.9,2237.4,477.8,2254.5,477.8z"/>
<path class="st7" d="M1394.4,75.2h25c24.6,0,44.7,20.1,44.7,44.7l0,0c0,24.6-20.1,44.7-44.7,44.7h-25c-24.6,0-44.7-20.1-44.7-44.7
	l0,0C1349.7,95.3,1369.9,75.2,1394.4,75.2z"/>
<path class="st7" d="M1407.3,123.8c0,0,80.8-0.1,100.7-0.1c0.8,0,1.5,0.1,2.3,0.1c0.7,0,1.4,0,2.1,0c0,0,0.1,0,0,0l0,0
	c27-1.1,48.6-23.3,48.6-50.6c0-28-22.7-50.7-50.7-50.7c-5.3,0-10.4,0.8-15.1,2.3l0,0c-1.7,0.5-3.4,1.2-5,1.8l-92.8,34.6v0
	c-12.9,4.2-22.2,16.3-22.2,30.5C1375.2,109.4,1389.6,123.8,1407.3,123.8z"/>
<path class="st7" d="M1146.1,382.1v317.1c0,125.6,79,233.6,189.7,276.8h214.6c110.7-43.3,189.7-151.3,189.7-276.8V374
	c9.8-10,15.9-23.6,15.9-38.7V195.7c0-30.3-24.8-55.1-55.1-55.1h-23.9c-17.2,0-31.2,14-31.2,31.2v11.6c-22.3-11-47.4-17.2-73.9-17.2
	h-257.8c-30.5,0-59.2,8.2-83.9,22.6v-17c0-17.2-14-31.2-31.2-31.2h-23.9c-30.3,0-55.1,24.8-55.1,55.1v139.7
	C1120.1,355,1130.5,372.3,1146.1,382.1z"/>
<path class="st4" d="M1326.3,976h256.3c99.7-48.1,168.9-150.2,168.9-267.8V343.4c0-92.5-75.7-168.1-168.1-168.1h-257.8
	c-92.5,0-168.1,75.7-168.1,168.1v364.9C1157.5,825.8,1226.7,928,1326.3,976z"/>
<path class="st5" d="M1688.4,149.7h23.9c30.3,0,55.1,24.8,55.1,55.1v139.7c0,30.3-24.8,55.1-55.1,55.1h-23.9
	c-17.2,0-31.2-14-31.2-31.2V180.9C1657.2,163.7,1671.3,149.7,1688.4,149.7z"/>
<path class="st5" d="M1210.5,149.7h-23.9c-30.3,0-55.1,24.8-55.1,55.1v139.7c0,30.3,24.8,55.1,55.1,55.1h23.9
	c17.2,0,31.2-14,31.2-31.2V180.9C1241.7,163.7,1227.7,149.7,1210.5,149.7z"/>
<path class="st3" d="M1210.5,149.7h-23.9c-30.3,0-55.1,24.8-55.1,55.1v130.3c20.9,1.8,43.2-13.5,49.5-34l45.2-147.2
	C1221.5,151.2,1216.2,149.7,1210.5,149.7z"/>
<path class="st4" d="M1555.8,360.7L1555.8,360.7c-27,39.2-17,93.3,22.2,120.2L1738,591.1c39.2,27,93.3,17,120.2-22.2l0,0
	c27-39.2,17-93.3-22.2-120.2L1676,338.5C1636.8,311.5,1582.7,321.5,1555.8,360.7z"/>
<path class="st4" d="M1367.6,360.7L1367.6,360.7c27,39.2,17,93.3-22.2,120.2l-160.1,110.2c-39.2,27-93.3,17-120.2-22.2h0
	c-27-39.2-17-93.3,22.2-120.2l160.1-110.2C1286.5,311.5,1340.6,321.5,1367.6,360.7z"/>
<ellipse transform="matrix(0.7071 -0.7071 0.7071 0.7071 108.1633 1478.173)" class="st4" cx="1838.4" cy="608.5" rx="145.5" ry="145.5"/>
<path class="st9" d="M1454.5,192.8L1454.5,192.8c36.4,0,66.2,29.8,66.2,66.2v138.2c0,36.4-29.8,66.2-66.2,66.2h0
	c-36.4,0-66.2-29.8-66.2-66.2V259C1388.3,222.6,1418.1,192.8,1454.5,192.8z"/>
<path class="st3" d="M1684.5,528.1L1684.5,528.1c0,74.2-60.7,135-135,135h-197.5c-74.2,0-135-60.7-135-135l0,0
	c0-74.2,60.7-135,135-135h197.5C1623.8,393.1,1684.5,453.9,1684.5,528.1z"/>
<path class="st10" d="M1684.5,528.1L1684.5,528.1c0,7.6-0.6,15.1-1.9,22.3H1219c-1.2-7.3-1.9-14.7-1.9-22.3v0
	c0-74.2,60.7-135,135-135h197.5C1623.8,393.1,1684.5,453.8,1684.5,528.1z"/>
<path class="st11" d="M1563.6,374.5L1563.6,374.5c0,18.9-15.5,34.3-34.3,34.3h-149.6c-18.9,0-34.3-15.5-34.3-34.3l0,0
	c0-18.9,15.5-34.3,34.3-34.3h149.6C1548.2,340.2,1563.6,355.6,1563.6,374.5z"/>
<path class="st11" d="M1629.1,622.1v113c0,96.1-78.6,174.7-174.7,174.7l0,0c-96.1,0-174.7-78.6-174.7-174.7v-113
	c0-96.1,78.6-174.7,174.7-174.7l0,0C1550.6,447.4,1629.1,526,1629.1,622.1z"/>
<path class="st4" d="M0,495.3c241,110.6,1011.3,241,1439.7,241c428.8,0,1199.3-149.4,1440.3-260.2v499.6L0,976V495.3z"/>
<g>
	<path class="st6" d="M1457.5,432.4c58.7,0,106.3,47.6,106.3,106.3c0,58.7-47.6,106.3-106.3,106.3c-58.7,0-106.3-47.6-106.3-106.3
		C1351.1,480,1398.8,432.4,1457.5,432.4z"/>
</g>
<g>
	<path class="st12" d="M1359.7,191.9L1359.7,191.9c14.7,0,29.1,12,32.1,26.7l3.3,16.2c3,14.7-6.6,26.7-21.3,26.7l0,0
		c-14.7,0-29.1-12-32.1-26.7l-3.3-16.2C1335.4,203.9,1345,191.9,1359.7,191.9z"/>
	<path class="st12" d="M1549.3,191.9L1549.3,191.9c-14.7,0-29.1,12-32.1,26.7l-3.3,16.2c-3,14.7,6.6,26.7,21.3,26.7l0,0
		c14.7,0,29.1-12,32.1-26.7l3.3-16.2C1573.6,203.9,1564,191.9,1549.3,191.9z"/>
</g>
<path class="st4" d="M1463.9,160.5c0,0,50.2,0,62.7,0c0.5,0,1,0,1.4,0c0.4,0,0.9,0,1.3,0c0,0,0,0,0,0l0,0
	c16.8-0.7,30.2-14.5,30.2-31.5c0-17.4-14.1-31.5-31.5-31.5c-3.3,0-6.4,0.5-9.4,1.4l0,0c-1.1,0.3-2.1,0.7-3.1,1.1l-57.7,21.5v0
	c-8,2.6-13.8,10.1-13.8,19C1444,151.6,1452.9,160.5,1463.9,160.5z"/>
<path class="st4" d="M1400.7,83.4h25c24.6,0,44.7,20.1,44.7,44.7l0,0c0,24.6-20.1,44.7-44.7,44.7h-25c-24.6,0-44.7-20.1-44.7-44.7
	l0,0C1356,103.5,1376.1,83.4,1400.7,83.4z"/>
<path class="st12" d="M1454.5,89.1L1454.5,89.1c47.5,0,86.3,38.8,86.3,86.3v52.4c0,47.5-38.8,86.3-86.3,86.3l0,0
	c-47.5,0-86.3-38.8-86.3-86.3v-52.4C1368.2,127.9,1407,89.1,1454.5,89.1z"/>
<path class="st13" d="M1445.9,313.7c-43.5-4.3-77.7-41.3-77.7-85.9v-52.4c0-36.3,22.8-67.6,54.7-80.3c32,12.7,54.7,44,54.7,80.3V247
	C1477.6,273.8,1465.2,297.8,1445.9,313.7z"/>
<path class="st12" d="M1374.6,260.4c-4.1-10.1-6.4-21.1-6.4-32.6v-52.4c0-8.2,1.2-16.2,3.3-23.7h102.8c2.2,7.5,3.3,15.5,3.3,23.7
	V247c0,4.6-0.4,9.1-1.1,13.4H1374.6z"/>
<path class="st4" d="M1413.6,132c0,0,80.8-0.1,100.7-0.1c0.8,0,1.5,0.1,2.3,0.1c0.7,0,1.4,0,2.1,0c0,0,0.1,0,0,0l0,0
	c27-1.1,48.6-23.3,48.6-50.6c0-28-22.7-50.7-50.7-50.7c-5.3,0-10.4,0.8-15.1,2.3l0,0c-1.7,0.5-3.4,1.2-5,1.8l-92.8,34.6v0
	c-12.9,4.2-22.2,16.3-22.2,30.5C1381.5,117.6,1395.9,132,1413.6,132z"/>
<path class="st14" d="M1171.6,849c19.7,1.2,39.4,2.2,59.1,3.2c4.4,0.2,8.2-2.6,9.2-6.8l8.3-32.7c0.7-2.7,0.2-5.4-1.5-7.6
	c-1.7-2.3-4.1-3.5-6.9-3.7c-17.9-0.8-35.9-1.7-53.8-2.7c-3.9-0.2-7.4,2-8.9,5.6l-13.4,32.3c-1.2,2.8-0.9,5.7,0.7,8.3
	C1166,847.4,1168.6,848.9,1171.6,849z"/>
<path class="st14" d="M749.5,889.8l-27.7,27.8c-2.4,2.4-3.3,5.8-2.2,9.1c1,3.3,3.6,5.6,7,6.2c28.7,5.4,57.4,10.4,86.2,14.9
	c3.3,0.5,6.5-0.7,8.6-3.4l23-29.4c2-2.6,2.5-5.9,1.3-9c-1.2-3.1-3.8-5.1-7.1-5.6c-27.1-4.1-54.1-8.5-81-13.2
	C754.5,886.7,751.7,887.6,749.5,889.8z"/>
<path class="st14" d="M1064.3,841.2c21.8,1.9,43.7,3.6,65.5,5.1c4,0.3,7.5-1.9,9-5.6l13.3-32.2c1.2-2.8,0.9-5.7-0.7-8.3
	c-1.6-2.6-4.1-4.1-7.1-4.3c-19.9-1.3-39.8-2.8-59.7-4.4c-3.5-0.3-6.7,1.3-8.5,4.4l-18.8,31.5c-1.7,2.8-1.8,5.9-0.3,8.8
	C1058.5,839.1,1061.1,840.9,1064.3,841.2z"/>
<path class="st14" d="M827.1,971.8l-3,3.9h62.4c-17-2.3-33.9-4.7-50.9-7.3C832.3,968,829.2,969.2,827.1,971.8z"/>
<path class="st14" d="M955.4,830.2c21.7,2.5,43.4,4.8,65.1,6.9c3.6,0.4,6.8-1.3,8.7-4.4l18.7-31.3c1.6-2.8,1.8-5.9,0.3-8.8
	c-1.5-2.9-4.1-4.6-7.3-4.9c-19.9-1.8-39.9-3.8-59.8-6c-3.2-0.3-6.1,0.9-8.1,3.4l-23.7,30.4c-2.1,2.7-2.5,6-1.2,9.1
	C949.4,827.8,952,829.8,955.4,830.2z"/>
<path class="st14" d="M785.6,873.9c25.3,4.2,50.6,8.1,75.9,11.8c3.3,0.5,6.4-0.8,8.4-3.4l23.2-29.7c2.1-2.6,2.5-5.9,1.3-9
	c-1.3-3.1-3.9-5.1-7.2-5.6c-23.5-3.2-47-6.6-70.5-10.3c-3-0.5-5.7,0.4-7.8,2.6l-28.3,28.3c-2.5,2.5-3.3,5.9-2.2,9.2
	C779.5,871.1,782.2,873.4,785.6,873.9z"/>
<path class="st14" d="M688.1,855.9c16.6,3.4,33.2,6.6,49.8,9.6c3,0.6,5.9-0.3,8.1-2.5l27.8-27.9c2.5-2.5,3.3-5.9,2.2-9.2
	c-1.1-3.3-3.7-5.6-7.1-6.2c-14.8-2.6-29.7-5.2-44.4-8c-2.7-0.5-5.2,0.1-7.4,1.8L684.3,840c-2.8,2.3-4,5.7-3.1,9.2
	C682,852.7,684.6,855.2,688.1,855.9z"/>
<path class="st14" d="M964,916.9c-26.8-3-53.6-6.4-80.4-10c-3.3-0.4-6.3,0.8-8.4,3.4L852,940c-2.1,2.6-2.5,5.9-1.3,9
	c1.2,3.1,3.8,5.1,7.1,5.6c28.5,4.1,57,7.8,85.6,11.2c3.6,0.4,7-1.2,8.9-4.4l18.5-30.9c1.6-2.7,1.8-5.8,0.3-8.7
	C969.7,919.1,967.1,917.3,964,916.9z"/>
<path class="st14" d="M756.5,801.3c13,2.3,26,4.5,39.1,6.7c3,0.5,5.8-0.4,7.9-2.5l28.3-28.4c2.5-2.5,3.3-5.9,2.2-9.2
	c-1.1-3.3-3.8-5.6-7.2-6.1c-11.2-1.7-22.3-3.5-33.4-5.3c-2.6-0.4-5.1,0.2-7.2,1.9l-33.8,27.1c-2.8,2.3-4,5.8-3.1,9.3
	C750.2,798.1,752.9,800.7,756.5,801.3z"/>
<path class="st14" d="M844.1,815.5c21.8,3.2,43.6,6.2,65.4,9c3.3,0.4,6.3-0.8,8.3-3.4l23.5-30.1c2.1-2.7,2.5-6,1.2-9.1
	c-1.3-3.1-4-5.1-7.3-5.5c-20-2.4-39.9-5-59.8-7.8c-2.9-0.4-5.6,0.5-7.7,2.6L839,800.1c-2.5,2.5-3.3,5.9-2.2,9.3
	C837.9,812.7,840.6,815,844.1,815.5z"/>
<path class="st14" d="M991.1,896.5l18.6-31.1c1.6-2.7,1.8-5.9,0.3-8.7c-1.4-2.9-4-4.6-7.2-5c-23.4-2.4-46.7-5-70.1-7.9
	c-3.3-0.4-6.2,0.8-8.3,3.4l-23.5,30c-2.1,2.6-2.5,5.9-1.2,9c1.3,3.1,3.9,5.1,7.2,5.6c25.1,3.2,50.2,6.2,75.4,8.9
	C986,901.2,989.3,899.6,991.1,896.5z"/>
<path class="st14" d="M1459.6,857c19.6-0.1,39.2-0.3,58.8-0.6c2.7,0,5-1.1,6.7-3.1c1.8-2,2.5-4.4,2.1-7.1l-4.2-33.1
	c-0.6-4.6-4.5-8-9.2-7.9c-18.1,0.3-36.2,0.5-54.4,0.6c-5,0-9,4.1-9,9.1v33.1c0,2.5,0.9,4.7,2.7,6.4
	C1454.9,856.1,1457.1,857,1459.6,857z"/>
<path class="st14" d="M2101,867.8c1.1-3.3,0.2-6.7-2.2-9.2l-28.3-28.3c-2.1-2.1-4.9-3-7.8-2.6c-23.5,3.7-47,7.1-70.5,10.3
	c-3.3,0.4-5.9,2.5-7.2,5.6c-1.3,3.1-0.8,6.4,1.3,9l23.3,29.7c2.1,2.6,5.1,3.9,8.4,3.4c25.3-3.6,50.7-7.5,75.9-11.8
	C2097.3,873.4,2099.9,871.1,2101,867.8z"/>
<path class="st14" d="M2076,805.4c2.1,2.1,4.9,3,7.9,2.5c13-2.1,26.1-4.4,39.1-6.7c3.6-0.6,6.3-3.2,7.2-6.7c0.9-3.5-0.3-7.1-3.1-9.3
	l-33.8-27.1c-2.1-1.7-4.5-2.3-7.2-1.9c-11.1,1.8-22.3,3.6-33.4,5.3c-3.5,0.5-6.2,2.8-7.2,6.1c-1.1,3.3-0.3,6.8,2.2,9.2L2076,805.4z"
	/>
<path class="st14" d="M2058.1,944.4c2.1,2.7,5.2,3.9,8.6,3.4c28.8-4.6,57.6-9.5,86.2-14.9c3.4-0.6,6-2.9,7-6.2
	c1-3.3,0.2-6.7-2.2-9.1l-27.7-27.8c-2.2-2.2-5-3.1-8-2.5c-26.9,4.8-53.9,9.2-81,13.2c-3.3,0.5-5.9,2.5-7.1,5.6
	c-1.2,3.1-0.8,6.3,1.3,9L2058.1,944.4z"/>
<path class="st14" d="M2103.4,826c-1.1,3.3-0.2,6.7,2.2,9.2l27.8,27.9c2.2,2.2,5,3.1,8.1,2.5c16.6-3.1,33.2-6.3,49.8-9.6
	c3.5-0.7,6.2-3.3,7-6.8c0.9-3.5-0.3-7-3.1-9.2l-32.9-26.4c-2.1-1.7-4.7-2.3-7.4-1.8c-14.8,2.8-29.6,5.5-44.4,8
	C2107.1,820.4,2104.4,822.7,2103.4,826z"/>
<path class="st14" d="M1961.7,821.2c2,2.6,5,3.8,8.3,3.4c21.8-2.8,43.6-5.8,65.4-9c3.5-0.5,6.2-2.8,7.3-6.1c1.1-3.3,0.3-6.8-2.2-9.3
	l-28.8-28.8c-2.1-2.1-4.8-3-7.7-2.6c-19.9,2.8-39.8,5.3-59.8,7.8c-3.3,0.4-6,2.4-7.3,5.5c-1.3,3.1-0.8,6.4,1.2,9.1L1961.7,821.2z"/>
<path class="st14" d="M2161.9,884.8c-1,3.3-0.2,6.6,2.3,9.1l27.2,27.3c2.2,2.2,5.2,3.1,8.3,2.5c20-4.1,40-8.5,59.9-13.1
	c3.5-0.8,6-3.4,6.8-6.8c0.8-3.5-0.4-6.9-3.2-9.1l-31.8-25.5c-2.2-1.8-4.8-2.4-7.6-1.8c-18.3,4-36.6,7.7-55,11.3
	C2165.5,879.2,2163,881.5,2161.9,884.8z"/>
<path class="st14" d="M1946.7,843.8c-23.3,2.8-46.7,5.5-70.1,7.9c-3.2,0.3-5.8,2.1-7.2,5c-1.4,2.9-1.3,6,0.3,8.7l18.6,31.1
	c1.9,3.1,5.2,4.8,8.8,4.4c25.2-2.7,50.3-5.7,75.4-8.9c3.3-0.4,6-2.5,7.2-5.6c1.3-3.1,0.8-6.4-1.2-9l-23.5-30
	C1952.9,844.7,1949.9,843.4,1946.7,843.8z"/>
<path class="st14" d="M1459.6,924.6c22.5-0.1,44.9-0.4,67.4-0.8c2.7-0.1,5-1.1,6.7-3.1c1.7-2,2.5-4.4,2.1-7.1l-4.2-33.1
	c-0.6-4.6-4.5-8-9.2-7.9c-21,0.4-41.9,0.6-62.9,0.7c-5,0-9,4.1-9,9.1v33.1c0,2.5,0.9,4.7,2.7,6.4
	C1454.9,923.7,1457.1,924.6,1459.6,924.6z"/>
<path class="st14" d="M619.8,910.5c19.9,4.6,39.9,9,60,13.1c3.1,0.6,6-0.2,8.3-2.5l27.2-27.3c2.4-2.4,3.3-5.8,2.3-9.1
	c-1-3.3-3.6-5.6-7-6.3c-18.4-3.6-36.7-7.3-55-11.3c-2.8-0.6-5.4,0-7.6,1.8l-31.8,25.5c-2.8,2.2-4,5.6-3.2,9.1
	C613.8,907.2,616.3,909.7,619.8,910.5z"/>
<path class="st14" d="M1639.5,845.4c1.1,4.2,4.9,7.1,9.2,6.8c19.7-0.9,39.4-2,59.2-3.2c3-0.2,5.5-1.7,7.2-4.2
	c1.6-2.6,1.8-5.5,0.7-8.3l-13.4-32.3c-1.5-3.6-5-5.8-8.9-5.6c-17.9,1-35.9,1.9-53.8,2.7c-2.8,0.1-5.2,1.4-6.9,3.7
	c-1.7,2.3-2.2,4.9-1.5,7.6L1639.5,845.4z"/>
<path class="st14" d="M1850.2,832.7c1.8,3.1,5.1,4.7,8.7,4.4c21.7-2.1,43.4-4.4,65.1-6.9c3.3-0.4,6-2.4,7.3-5.5
	c1.3-3.1,0.9-6.4-1.2-9.1l-23.7-30.4c-2-2.5-4.9-3.8-8.1-3.4c-19.9,2.2-39.8,4.2-59.8,6c-3.2,0.3-5.8,2.1-7.3,4.9
	c-1.5,2.9-1.3,6,0.3,8.8L1850.2,832.7z"/>
<path class="st14" d="M1740.6,840.7c1.5,3.7,5.1,5.9,9,5.6c21.8-1.5,43.7-3.3,65.5-5.1c3.2-0.3,5.8-2,7.3-4.9c1.5-2.9,1.4-6-0.3-8.8
	l-18.8-31.5c-1.8-3-5-4.7-8.5-4.4c-19.9,1.6-39.8,3.1-59.7,4.4c-3,0.2-5.5,1.7-7.1,4.3c-1.6,2.6-1.8,5.5-0.7,8.3L1740.6,840.7z"/>
<path class="st14" d="M1207,976l7.1-28c0.7-2.7,0.2-5.4-1.5-7.6c-1.7-2.3-4-3.5-6.8-3.7c-25-1.3-49.9-2.8-74.9-4.6
	c-4-0.3-7.5,1.9-9,5.6l-13.3,32.1c-0.8,2-0.9,4.2-0.3,6.2H1207z"/>
<path class="st14" d="M1608.2,853.9c2.8-0.1,5.2-1.4,6.9-3.6c1.7-2.3,2.2-4.9,1.5-7.7l-8.3-32.8c-1.1-4.2-4.8-7-9.1-6.9
	c-15.2,0.5-30.5,1-45.8,1.4c-2.7,0.1-4.9,1.1-6.7,3.2c-1.7,2-2.5,4.4-2.1,7.1l4.2,33c0.6,4.6,4.6,8.1,9.2,7.9
	C1574.9,855,1591.5,854.5,1608.2,853.9z"/>
<path class="st15" d="M1672.5,976h98.7c0.6-2,0.5-4.1-0.3-6.2l-13.3-32.1c-1.5-3.7-5.1-5.9-9-5.6c-24.9,1.8-49.9,3.3-74.9,4.6
	c-2.8,0.1-5.2,1.4-6.8,3.7c-1.7,2.3-2.2,4.9-1.5,7.6L1672.5,976z"/>
<path class="st14" d="M1735.2,914.9c3-0.2,5.5-1.7,7.1-4.3c1.6-2.6,1.8-5.5,0.7-8.3l-13.3-32.2c-1.5-3.7-5-5.8-9-5.6
	c-21.4,1.4-42.8,2.5-64.2,3.6c-2.8,0.1-5.2,1.4-6.9,3.7c-1.7,2.3-2.2,4.9-1.5,7.6l8.3,32.7c1.1,4.2,4.9,7.1,9.3,6.8
	C1688.8,917.8,1712,916.5,1735.2,914.9z"/>
<path class="st15" d="M1565.3,976h85.1l-7.7-30.5c-1.1-4.2-4.8-7-9.2-6.9c-20.9,0.9-41.7,1.6-62.6,2.3c-2.7,0.1-4.9,1.2-6.6,3.2
	c-1.7,2-2.4,4.4-2.1,7L1565.3,976z"/>
<path class="st14" d="M660.9,941.8c-1-3.3-3.5-5.6-6.8-6.3c-21.6-4.7-43-9.6-64.5-14.9c-2.8-0.7-5.6-0.1-7.9,1.7L551,947
	c-2.7,2.2-3.9,5.5-3.2,9c0.7,3.4,3.2,6,6.6,6.9c17.3,4.6,34.8,9,52.2,13.1h26.9l25.1-25.2C661,948.4,661.9,945.1,660.9,941.8z"/>
<path class="st14" d="M1860.8,900.3c1.4-2.9,1.3-6-0.3-8.8l-18.7-31.3c-1.8-3.1-5.1-4.7-8.6-4.4c-23.6,2.2-47.3,4.1-70.9,5.8
	c-3,0.2-5.5,1.7-7.1,4.3c-1.6,2.6-1.8,5.5-0.7,8.2l13.3,32.1c1.5,3.7,5.1,5.9,9.1,5.6c25.6-2,51.2-4.2,76.7-6.7
	C1856.7,905,1859.3,903.2,1860.8,900.3z"/>
<path class="st14" d="M2215,976c-0.2-0.2-0.3-0.4-0.5-0.6l-27.2-27.2c-2.2-2.2-5.1-3.1-8.2-2.5c-30.2,6-60.5,11.5-90.8,16.5
	c-3.3,0.5-5.8,2.6-7,5.7c-1.1,2.8-0.8,5.7,0.8,8.1H2215z"/>
<path class="st14" d="M2328.4,946.8l-30.8-24.7c-2.3-1.8-5-2.4-7.9-1.7c-21.4,5.3-42.9,10.2-64.5,14.9c-3.3,0.7-5.8,3-6.8,6.3
	c-1,3.3-0.1,6.6,2.3,9l25.4,25.5h25.6c17.8-4.2,35.6-8.7,53.3-13.4c3.4-0.9,5.8-3.5,6.6-6.9C2332.3,952.3,2331.1,949,2328.4,946.8z"
	/>
<path class="st14" d="M2055,975.2l-2.6-3.4c-2.1-2.7-5.2-3.9-8.5-3.4c-15.7,2.4-31.4,4.6-47.1,6.8H2055z"/>
<path class="st14" d="M1899.6,957.1L1881,926c-1.9-3.1-5.1-4.7-8.7-4.4c-27.4,2.8-54.8,5.3-82.3,7.5c-3,0.2-5.5,1.8-7,4.3
	c-1.6,2.6-1.8,5.4-0.6,8.2l13.2,32c0.4,0.9,0.9,1.8,1.5,2.5h42.5c17.7-1.6,35.4-3.4,53.1-5.3c3.2-0.3,5.7-2.1,7.2-5
	C1901.3,962.9,1901.2,959.8,1899.6,957.1z"/>
<path class="st14" d="M2028.8,949c1.2-3.1,0.8-6.4-1.3-9l-23.2-29.7c-2-2.6-5.1-3.9-8.4-3.4c-26.8,3.6-53.6,7-80.4,10
	c-3.2,0.4-5.7,2.1-7.1,5c-1.4,2.8-1.3,6,0.3,8.7l18.5,30.9c1.9,3.1,5.2,4.8,8.9,4.4c28.6-3.4,57.1-7.1,85.6-11.2
	C2024.9,954.2,2027.5,952.1,2028.8,949z"/>
<path class="st14" d="M1625.2,920.9c2.8-0.1,5.2-1.4,6.9-3.6c1.7-2.3,2.2-4.9,1.5-7.7l-8.3-32.8c-1.1-4.2-4.8-7-9.2-6.9
	c-18,0.7-36.1,1.3-54.1,1.8c-2.7,0.1-4.9,1.1-6.6,3.2c-1.7,2-2.4,4.4-2.1,7.1l4.2,33c0.6,4.7,4.6,8.1,9.3,7.9
	C1586.2,922.3,1605.7,921.7,1625.2,920.9z"/>
<path class="st14" d="M1229.8,871.8c-1.7-2.3-4-3.5-6.9-3.7c-21.4-1-42.8-2.2-64.2-3.6c-3.9-0.2-7.5,1.9-9,5.6l-13.3,32.2
	c-1.2,2.8-0.9,5.7,0.7,8.3c1.6,2.6,4.1,4.1,7.1,4.3c23.2,1.6,46.4,2.9,69.6,4.1c4.4,0.2,8.2-2.6,9.3-6.8l8.3-32.7
	C1232,876.7,1231.5,874.1,1229.8,871.8z"/>
<path class="st14" d="M1111.7,906.3l13.3-32.1c1.2-2.8,0.9-5.7-0.7-8.2c-1.6-2.6-4.1-4.1-7.1-4.3c-23.7-1.7-47.3-3.7-70.9-5.8
	c-3.6-0.3-6.8,1.3-8.6,4.4l-18.7,31.3c-1.6,2.8-1.8,5.9-0.3,8.8c1.4,2.9,4,4.6,7.2,4.9c25.5,2.5,51.1,4.7,76.7,6.7
	C1106.6,912.2,1110.2,910,1111.7,906.3z"/>
<path class="st14" d="M1082.3,976c0.6-0.7,1.2-1.6,1.6-2.6l13.2-32c1.1-2.8,0.9-5.7-0.6-8.2c-1.6-2.6-4-4.1-7-4.3
	c-27.5-2.2-54.9-4.7-82.3-7.5c-3.6-0.4-6.9,1.3-8.7,4.4l-18.6,31.1c-1.6,2.7-1.8,5.9-0.3,8.7c1.4,2.9,4,4.6,7.2,5
	c18,1.9,36.1,3.7,54.1,5.4H1082.3z"/>
<path class="st14" d="M1314.2,976l3.2-24.9c0.3-2.6-0.4-5-2.1-7c-1.7-2-4-3.1-6.6-3.2c-20.9-0.6-41.8-1.4-62.6-2.3
	c-4.3-0.2-8.1,2.6-9.2,6.9l-7.7,30.5H1314.2z"/>
<path class="st14" d="M796.9,975.7c1.9-2.6,2.3-5.7,1.1-8.6c-1.2-3.1-3.7-5.1-7-5.7c-30.4-5-60.6-10.5-90.8-16.5
	c-3.1-0.6-6,0.3-8.2,2.5l-27.2,27.2c-0.3,0.3-0.6,0.7-0.9,1.1H796.9z"/>
<path class="st14" d="M1419.9,805.7c-18.1-0.1-36.2-0.3-54.4-0.6c-4.6-0.1-8.6,3.3-9.2,7.9l-4.2,33.1c-0.3,2.7,0.4,5.1,2.1,7.1
	c1.8,2,4,3.1,6.7,3.1c19.6,0.3,39.2,0.6,58.8,0.6c2.5,0,4.7-0.9,6.4-2.6c1.8-1.8,2.7-3.9,2.7-6.4v-33.1
	C1429,809.8,1424.9,805.7,1419.9,805.7z"/>
<path class="st14" d="M1419.9,873.3c-21-0.1-41.9-0.3-62.9-0.7c-4.7-0.1-8.6,3.3-9.2,7.9l-4.2,33.1c-0.3,2.7,0.4,5.1,2.1,7.1
	c1.7,2,4,3.1,6.7,3.1c22.5,0.4,44.9,0.7,67.4,0.8c2.5,0,4.7-0.9,6.4-2.6c1.8-1.8,2.7-3.9,2.7-6.4v-33.1
	C1429,877.4,1424.9,873.3,1419.9,873.3z"/>
<path class="st14" d="M1317.4,871.7c-18-0.5-36.1-1.1-54.1-1.8c-4.3-0.2-8.1,2.6-9.2,6.9l-8.3,32.8c-0.7,2.7-0.2,5.4,1.5,7.7
	c1.7,2.3,4.1,3.5,6.9,3.6c19.5,0.8,38.9,1.5,58.4,2c4.7,0.1,8.7-3.3,9.3-7.9l4.2-33c0.3-2.6-0.4-5-2.1-7.1
	C1322.3,872.8,1320,871.8,1317.4,871.7z"/>
<path class="st14" d="M1429,976v-24.2c0-5-4.1-9.1-9-9.1c-23.9-0.1-47.8-0.4-71.7-0.9c-4.7-0.1-8.6,3.3-9.2,7.9l-3.3,26.2H1429z"/>
<path class="st14" d="M1325.9,804.3c-15.3-0.4-30.5-0.8-45.8-1.4c-4.3-0.2-8.1,2.7-9.1,6.9l-8.3,32.8c-0.7,2.7-0.2,5.4,1.5,7.7
	c1.7,2.3,4.1,3.5,6.9,3.6c16.7,0.6,33.4,1.1,50,1.6c4.7,0.1,8.7-3.3,9.2-7.9l4.2-33c0.3-2.6-0.4-5-2.1-7.1
	C1330.8,805.4,1328.6,804.4,1325.9,804.3z"/>
<path class="st3" d="M794.5,802.9c-13-2.1-26.1-4.4-39.1-6.7c-3.6-0.6-6.3-3.2-7.2-6.7c-0.9-3.5,0.3-7.1,3.1-9.3l33.8-27.1
	c2.1-1.7,4.5-2.3,7.2-1.9c11.1,1.8,22.3,3.6,33.4,5.3c3.5,0.5,6.2,2.8,7.2,6.1c1.1,3.3,0.3,6.8-2.2,9.2l-28.3,28.4
	C800.2,802.5,797.4,803.3,794.5,802.9z"/>
<path class="st3" d="M908.3,819.5c-21.8-2.8-43.6-5.8-65.4-9c-3.5-0.5-6.2-2.8-7.3-6.1c-1.1-3.3-0.3-6.8,2.2-9.3l28.8-28.8
	c2.1-2.1,4.8-3,7.7-2.6c19.9,2.8,39.9,5.3,59.8,7.8c3.3,0.4,6,2.4,7.3,5.5c1.3,3.1,0.8,6.4-1.2,9.1l-23.5,30.1
	C914.6,818.7,911.6,819.9,908.3,819.5z"/>
<path class="st3" d="M1019.4,832c-21.7-2.1-43.4-4.4-65.1-6.9c-3.4-0.4-6-2.4-7.3-5.5c-1.3-3.1-0.9-6.4,1.2-9.1l23.7-30.4
	c2-2.5,4.9-3.8,8.1-3.4c19.9,2.2,39.8,4.2,59.8,6c3.2,0.3,5.8,2.1,7.3,4.9c1.5,2.9,1.3,6-0.3,8.8l-18.7,31.3
	C1026.2,830.7,1023,832.4,1019.4,832z"/>
<path class="st3" d="M1128.7,841.2c-21.8-1.5-43.7-3.3-65.5-5.1c-3.2-0.3-5.8-2-7.3-4.9c-1.5-2.9-1.4-6,0.3-8.8l18.8-31.5
	c1.8-3,5-4.7,8.5-4.4c19.9,1.6,39.8,3.1,59.7,4.4c3,0.2,5.5,1.7,7.1,4.3c1.6,2.6,1.8,5.5,0.7,8.3l-13.3,32.2
	C1136.2,839.3,1132.7,841.5,1128.7,841.2z"/>
<path class="st3" d="M1229.6,847.1c-19.7-0.9-39.4-2-59.1-3.2c-3-0.2-5.5-1.7-7.2-4.2c-1.6-2.6-1.9-5.5-0.7-8.3l13.4-32.3
	c1.5-3.6,5-5.8,8.9-5.6c17.9,1,35.9,1.9,53.8,2.7c2.8,0.1,5.2,1.4,6.9,3.7c1.7,2.3,2.2,4.9,1.5,7.6l-8.3,32.7
	C1237.8,844.5,1234,847.3,1229.6,847.1z"/>
<path class="st3" d="M1320.1,850.4c-16.7-0.4-33.4-1-50-1.6c-2.8-0.1-5.2-1.4-6.9-3.6c-1.7-2.3-2.2-4.9-1.5-7.7l8.3-32.8
	c1.1-4.2,4.8-7,9.1-6.9c15.2,0.5,30.5,1,45.8,1.4c2.7,0.1,4.9,1.1,6.7,3.2c1.7,2,2.5,4.4,2.1,7.1l-4.2,33
	C1328.8,847.1,1324.8,850.5,1320.1,850.4z"/>
<path class="st11" d="M1418.7,851.9c-19.6-0.1-39.2-0.3-58.8-0.6c-2.7,0-5-1.1-6.7-3.1c-1.8-2-2.5-4.4-2.1-7.1l4.2-33.1
	c0.6-4.6,4.5-8,9.2-7.9c18.1,0.3,36.2,0.5,54.4,0.6c5,0,9,4.1,9,9.1v33.1c0,2.5-0.9,4.7-2.7,6.4
	C1423.4,851,1421.2,851.9,1418.7,851.9z"/>
<path class="st3" d="M1517.2,851.2c-19.6,0.3-39.2,0.5-58.8,0.6c-2.5,0-4.7-0.9-6.4-2.6c-1.8-1.8-2.7-3.9-2.7-6.4v-33.1
	c0-5,4.1-9.1,9-9.1c18.1-0.1,36.2-0.3,54.4-0.6c4.7-0.1,8.6,3.3,9.2,7.9l4.2,33.1c0.3,2.7-0.4,5.1-2.1,7.1
	C1522.2,850.1,1519.9,851.2,1517.2,851.2z"/>
<path class="st3" d="M1607.1,848.8c-16.7,0.6-33.4,1.1-50,1.6c-4.7,0.1-8.7-3.3-9.2-7.9l-4.2-33c-0.3-2.6,0.4-5,2.1-7.1
	c1.7-2,4-3.1,6.7-3.2c15.3-0.4,30.5-0.8,45.8-1.4c4.3-0.2,8.1,2.7,9.1,6.9l8.3,32.8c0.7,2.7,0.2,5.4-1.5,7.7
	C1612.3,847.4,1609.9,848.7,1607.1,848.8z"/>
<path class="st3" d="M1706.7,843.9c-19.7,1.2-39.4,2.2-59.1,3.2c-4.4,0.2-8.2-2.6-9.2-6.8l-8.3-32.7c-0.7-2.7-0.2-5.4,1.5-7.6
	c1.7-2.3,4.1-3.5,6.9-3.7c17.9-0.8,35.9-1.7,53.8-2.7c3.9-0.2,7.4,2,8.9,5.6l13.4,32.3c1.2,2.8,0.9,5.7-0.7,8.3
	C1712.3,842.3,1709.7,843.8,1706.7,843.9z"/>
<path class="st3" d="M1814,836.1c-21.8,1.9-43.7,3.6-65.5,5.1c-4,0.3-7.5-1.9-9-5.6l-13.3-32.2c-1.2-2.8-0.9-5.7,0.7-8.3
	c1.6-2.6,4.1-4.1,7.1-4.3c19.9-1.3,39.8-2.8,59.7-4.4c3.5-0.3,6.7,1.3,8.5,4.4l18.8,31.5c1.7,2.8,1.8,5.9,0.3,8.8
	C1819.8,834,1817.2,835.8,1814,836.1z"/>
<path class="st3" d="M1922.9,825.1c-21.7,2.5-43.4,4.8-65.1,6.9c-3.6,0.4-6.8-1.3-8.7-4.4l-18.7-31.3c-1.6-2.8-1.8-5.9-0.3-8.8
	c1.5-2.9,4.1-4.6,7.3-4.9c19.9-1.8,39.9-3.8,59.8-6c3.2-0.4,6.1,0.9,8.1,3.4l23.7,30.4c2.1,2.7,2.5,6,1.2,9.1
	C1928.9,822.7,1926.3,824.7,1922.9,825.1z"/>
<path class="st3" d="M2034.2,810.4c-21.8,3.2-43.6,6.2-65.4,9c-3.3,0.4-6.3-0.8-8.3-3.4L1937,786c-2.1-2.7-2.5-6-1.2-9.1
	c1.3-3.1,4-5.1,7.3-5.5c20-2.4,39.9-5,59.8-7.8c2.9-0.4,5.6,0.5,7.7,2.6l28.8,28.8c2.5,2.5,3.3,5.9,2.2,9.3
	C2040.4,807.6,2037.7,809.9,2034.2,810.4z"/>
<path class="st11" d="M2121.8,796.2c-13,2.3-26,4.5-39.1,6.7c-3,0.5-5.8-0.4-7.9-2.5l-28.3-28.4c-2.5-2.5-3.3-5.9-2.2-9.2
	c1.1-3.3,3.8-5.6,7.3-6.1c11.1-1.7,22.3-3.5,33.4-5.3c2.6-0.4,5.1,0.2,7.2,1.9l33.8,27.1c2.8,2.3,4,5.8,3.1,9.3
	C2128.1,793,2125.4,795.6,2121.8,796.2z"/>
<path class="st3" d="M736.8,860.5c-16.6-3.1-33.2-6.3-49.8-9.6c-3.5-0.7-6.2-3.3-7-6.8c-0.8-3.5,0.3-7,3.1-9.2l32.9-26.4
	c2.1-1.7,4.7-2.3,7.4-1.8c14.8,2.8,29.6,5.5,44.4,8c3.4,0.6,6.1,2.9,7.1,6.2c1.1,3.3,0.2,6.7-2.2,9.2l-27.8,27.9
	C742.7,860.1,739.8,861,736.8,860.5z"/>
<path class="st16" d="M845.6,863.4c-10.3-1.5-20.6-3.1-30.9-4.8c-1.4-0.2-2.5-1.2-2.9-2.5c-0.4-1.3-0.1-2.7,0.9-3.7l11.5-11.5
	c0.9-0.9,2-1.2,3.2-1c9.5,1.5,19.1,2.9,28.7,4.2c1.3,0.2,2.4,1,2.9,2.3c0.5,1.3,0.3,2.6-0.5,3.7L849,862
	C848.2,863.1,846.9,863.6,845.6,863.4z"/>
<path class="st3" d="M981.2,895.7c-25.2-2.7-50.3-5.7-75.4-8.9c-3.3-0.4-6-2.5-7.2-5.6c-1.3-3.1-0.8-6.4,1.2-9l23.5-30
	c2-2.6,5-3.8,8.3-3.4c23.3,2.8,46.7,5.5,70.1,7.9c3.2,0.3,5.8,2.1,7.2,5c1.4,2.9,1.3,6-0.3,8.7L990,891.3
	C988.2,894.5,984.9,896.1,981.2,895.7z"/>
<path class="st3" d="M1101.5,906.8c-25.6-2-51.2-4.2-76.7-6.7c-3.2-0.3-5.8-2.1-7.2-4.9c-1.4-2.9-1.3-6,0.3-8.8l18.7-31.3
	c1.8-3.1,5.1-4.7,8.6-4.4c23.6,2.2,47.3,4.1,70.9,5.8c3,0.2,5.5,1.7,7.1,4.3c1.6,2.6,1.8,5.5,0.7,8.2l-13.3,32.1
	C1109,904.9,1105.4,907.1,1101.5,906.8z"/>
<path class="st3" d="M1212.7,913.9c-23.2-1.2-46.4-2.5-69.6-4.1c-3-0.2-5.5-1.7-7.1-4.3c-1.6-2.6-1.8-5.5-0.7-8.3l13.3-32.2
	c1.5-3.7,5-5.8,9-5.6c21.4,1.4,42.8,2.6,64.2,3.6c2.8,0.1,5.2,1.4,6.9,3.7c1.7,2.3,2.2,4.9,1.5,7.6L1222,907
	C1220.9,911.3,1217.1,914.1,1212.7,913.9z"/>
<path class="st16" d="M1303.5,909.8c-13.6-0.4-27.3-0.9-40.9-1.4c-2-0.1-3.6-1-4.8-2.5c-1.2-1.6-1.6-3.4-1.1-5.4l5.8-23
	c0.7-2.9,3.4-4.9,6.4-4.8c12.6,0.5,25.2,0.9,37.9,1.2c1.9,0,3.4,0.8,4.7,2.2c1.2,1.4,1.7,3.1,1.5,4.9l-2.9,23.1
	C1309.6,907.5,1306.8,909.9,1303.5,909.8z"/>
<path class="st3" d="M1418.7,919.5c-22.5-0.1-44.9-0.4-67.4-0.8c-2.7-0.1-5-1.1-6.7-3.1c-1.7-2-2.5-4.4-2.1-7.1l4.2-33.1
	c0.6-4.6,4.5-8,9.2-7.9c21,0.4,41.9,0.6,62.9,0.7c5,0,9,4.1,9,9.1v33.1c0,2.5-0.9,4.7-2.7,6.4
	C1423.4,918.6,1421.2,919.5,1418.7,919.5z"/>
<path class="st1" d="M1525.8,918.7c-22.5,0.4-44.9,0.7-67.4,0.8c-2.5,0-4.7-0.9-6.4-2.6c-1.8-1.8-2.7-3.9-2.7-6.4v-33.1
	c0-5,4.1-9.1,9-9.1c21-0.1,41.9-0.3,62.9-0.7c4.7-0.1,8.6,3.3,9.2,7.9l4.2,33.1c0.3,2.7-0.4,5.1-2.1,7.1
	C1530.8,917.6,1528.5,918.7,1525.8,918.7z"/>
<path class="st3" d="M1624,915.8c-19.5,0.8-38.9,1.5-58.4,2c-4.7,0.1-8.7-3.3-9.3-7.9l-4.2-33c-0.3-2.6,0.4-5,2.1-7.1
	c1.7-2,4-3.1,6.6-3.2c18-0.5,36.1-1.1,54.1-1.8c4.3-0.2,8.1,2.6,9.2,6.9l8.3,32.8c0.7,2.7,0.2,5.4-1.5,7.7
	C1629.2,914.4,1626.8,915.6,1624,915.8z"/>
<path class="st16" d="M1726.8,905.5c-18.9,1.3-37.8,2.4-56.7,3.3c-3.6,0.2-6.7-2.1-7.6-5.6l-6.7-26.7c-0.6-2.2-0.1-4.4,1.2-6.2
	c1.4-1.8,3.3-2.9,5.6-3c17.5-0.8,34.9-1.8,52.4-2.9c3.2-0.2,6.1,1.6,7.3,4.6l10.9,26.3c0.9,2.3,0.7,4.6-0.6,6.7
	C1731.3,904.2,1729.2,905.4,1726.8,905.5z"/>
<path class="st3" d="M1852.4,900.2c-25.5,2.5-51.1,4.7-76.7,6.7c-4,0.3-7.6-1.9-9.1-5.6l-13.3-32.1c-1.2-2.8-0.9-5.7,0.7-8.2
	c1.6-2.6,4.1-4.1,7.1-4.3c23.7-1.7,47.3-3.7,70.9-5.8c3.6-0.3,6.8,1.3,8.6,4.4l18.7,31.3c1.6,2.8,1.8,5.9,0.3,8.8
	C1858.2,898.1,1855.6,899.9,1852.4,900.2z"/>
<path class="st3" d="M1971.3,886.8c-25.1,3.2-50.2,6.2-75.4,8.9c-3.6,0.4-6.9-1.3-8.8-4.4l-18.6-31.1c-1.6-2.7-1.8-5.9-0.3-8.7
	c1.4-2.9,4-4.6,7.2-5c23.4-2.4,46.7-5,70.1-7.9c3.2-0.4,6.2,0.8,8.3,3.4l23.5,30c2.1,2.6,2.5,5.9,1.2,9
	C1977.3,884.3,1974.6,886.4,1971.3,886.8z"/>
<path class="st2" d="M2078.4,864c-18.2,3-36.4,5.9-54.6,8.5c-2.4,0.3-4.6-0.5-6.1-2.4l-16.7-21.4c-1.5-1.9-1.8-4.3-0.9-6.5
	c0.9-2.2,2.8-3.7,5.2-4c16.9-2.3,33.8-4.7,50.7-7.4c2.1-0.3,4.1,0.3,5.6,1.8l20.3,20.4c1.8,1.8,2.4,4.2,1.6,6.6
	C2082.8,861.9,2080.9,863.6,2078.4,864z"/>
<path class="st1" d="M2190.2,850.8c-16.6,3.4-33.2,6.6-49.8,9.6c-3,0.6-5.9-0.3-8.1-2.5l-27.8-27.9c-2.5-2.5-3.3-5.8-2.2-9.2
	c1.1-3.3,3.7-5.6,7.1-6.2c14.8-2.6,29.7-5.2,44.4-8c2.7-0.5,5.2,0.1,7.4,1.8l32.9,26.4c2.8,2.3,4,5.7,3.1,9.2
	C2196.3,847.6,2193.7,850.1,2190.2,850.8z"/>
<path class="st3" d="M678.6,918.6c-20-4.1-40-8.5-60-13.1c-3.5-0.8-6-3.4-6.8-6.8c-0.8-3.5,0.4-6.9,3.2-9.1l31.8-25.5
	c2.2-1.8,4.8-2.4,7.6-1.8c18.3,4,36.6,7.7,55,11.3c3.4,0.7,5.9,3,7,6.3c1,3.3,0.2,6.6-2.3,9.1l-27.2,27.3
	C684.6,918.3,681.7,919.2,678.6,918.6z"/>
<path class="st3" d="M811.7,942.7c-28.8-4.6-57.6-9.5-86.2-14.9c-3.4-0.6-6-2.9-7-6.2c-1-3.3-0.2-6.7,2.2-9.1l27.7-27.8
	c2.2-2.2,5-3.1,8-2.5c26.9,4.8,53.9,9.2,81,13.2c3.3,0.5,5.9,2.5,7.1,5.6c1.2,3.1,0.8,6.3-1.3,9l-23,29.4
	C818.2,942,815,943.2,811.7,942.7z"/>
<g>
	<path class="st6" d="M928.3,948c-16.2-1.9-32.5-4.1-48.6-6.4c-1.9-0.3-3.3-1.4-4.1-3.2c-0.7-1.8-0.4-3.6,0.7-5.1l13.2-16.9
		c1.2-1.5,2.9-2.2,4.8-1.9c15.2,2.1,30.4,4,45.7,5.7c1.8,0.2,3.2,1.2,4,2.8c0.8,1.6,0.7,3.4-0.2,4.9l-10.5,17.5
		C932.3,947.3,930.4,948.3,928.3,948z"/>
</g>
<g>
	<path class="st6" d="M1059.8,963.2c-18.3-1.5-36.5-3.3-54.8-5.2c-2-0.2-3.6-1.3-4.5-3.1c-0.9-1.8-0.8-3.7,0.2-5.4l11.6-19.3
		c1.2-1.9,3.2-2.9,5.4-2.7c17,1.7,34.1,3.3,51.2,4.6c1.9,0.2,3.4,1.1,4.4,2.7c1,1.6,1.1,3.4,0.4,5.1l-8.2,19.9
		C1064.5,962,1062.3,963.4,1059.8,963.2z"/>
</g>
<path class="st3" d="M1111.1,976h93.5c0-0.1,0.1-0.3,0.1-0.4l8.2-32.7c0.7-2.7,0.2-5.4-1.5-7.6c-1.7-2.3-4-3.5-6.8-3.7
	c-25-1.3-49.9-2.8-74.9-4.6c-4-0.3-7.5,1.9-9,5.6l-13.3,32.1c-1.2,2.8-0.9,5.7,0.7,8.2C1108.8,974.3,1109.9,975.3,1111.1,976z"/>
<path class="st3" d="M1312.4,976l3.8-30c0.3-2.6-0.4-5-2.1-7c-1.7-2-4-3.1-6.6-3.2c-20.9-0.6-41.8-1.4-62.6-2.3
	c-4.3-0.2-8.1,2.6-9.2,6.8l-8.3,32.8c-0.2,1-0.3,1.9-0.3,2.9H1312.4z"/>
<path class="st11" d="M1427.9,976v-29.3c0-5-4.1-9.1-9-9.1c-23.9-0.1-47.8-0.4-71.7-0.9c-4.7-0.1-8.6,3.3-9.2,7.9l-4,31.3H1427.9z"
	/>
<path class="st3" d="M1543.2,976l-4-31.3c-0.6-4.6-4.5-8-9.2-7.9c-23.9,0.5-47.8,0.8-71.7,0.9c-5,0-9,4.1-9,9.1V976H1543.2z"/>
<path class="st2" d="M1873.4,958.4c-18.9,2-37.9,3.8-56.9,5.4c-2.6,0.2-4.9-1.2-5.9-3.6l-8.6-20.7c-0.7-1.8-0.6-3.7,0.4-5.3
	c1-1.7,2.6-2.6,4.5-2.8c17.7-1.4,35.5-3,53.2-4.8c2.3-0.2,4.4,0.8,5.6,2.8l12,20.1c1.1,1.8,1.1,3.8,0.2,5.6
	C1877.1,957,1875.4,958.2,1873.4,958.4z"/>
<path class="st3" d="M2020.5,949.5c-28.5,4.1-57,7.8-85.6,11.2c-3.6,0.4-7-1.2-8.9-4.4l-18.4-30.9c-1.6-2.7-1.8-5.8-0.3-8.7
	c1.4-2.8,4-4.6,7.1-5c26.8-3,53.6-6.4,80.4-10c3.3-0.4,6.3,0.8,8.4,3.4l23.2,29.7c2.1,2.6,2.5,5.9,1.3,9
	C2026.4,947,2023.8,949,2020.5,949.5z"/>
<path class="st11" d="M2151.7,927.8c-28.7,5.4-57.4,10.4-86.2,14.9c-3.3,0.5-6.5-0.7-8.6-3.4l-23-29.4c-2-2.6-2.5-5.9-1.3-9
	c1.2-3.1,3.8-5.1,7.1-5.6c27.1-4.1,54.1-8.5,81-13.2c3-0.5,5.8,0.4,8,2.5l27.7,27.8c2.4,2.4,3.3,5.8,2.2,9.1
	C2157.7,924.9,2155.1,927.2,2151.7,927.8z"/>
<path class="st3" d="M2258.5,905.4c-19.9,4.6-39.9,9-59.9,13.1c-3.1,0.6-6-0.2-8.3-2.5l-27.2-27.3c-2.4-2.4-3.3-5.8-2.3-9.1
	c1-3.3,3.6-5.6,6.9-6.3c18.4-3.6,36.7-7.3,55-11.3c2.8-0.6,5.4,0,7.6,1.8l31.8,25.5c2.8,2.2,4,5.6,3.2,9.1
	C2264.5,902.1,2262,904.6,2258.5,905.4z"/>
<path class="st11" d="M622.4,974.7c-23.1-5.3-46.2-11-69.1-17.1c-3.4-0.9-5.8-3.5-6.6-6.9c-0.7-3.4,0.5-6.8,3.2-9l30.8-24.7
	c2.3-1.8,5-2.4,7.9-1.7c21.4,5.3,42.9,10.2,64.5,14.9c3.3,0.7,5.8,3,6.8,6.3c1,3.3,0.1,6.6-2.3,9l-26.7,26.7
	C628.5,974.5,625.5,975.4,622.4,974.7z"/>
<path class="st3" d="M791.8,975.7l3.8-4.9c2-2.6,2.5-5.8,1.3-8.9c-1.2-3.1-3.7-5.1-7-5.7c-30.4-5-60.6-10.5-90.8-16.5
	c-3.1-0.6-6,0.3-8.2,2.5l-27.1,27.2c-1.7,1.7-2.6,3.9-2.7,6.2H791.8z"/>
<path class="st1" d="M924.7,976c-30.1-3.7-60.2-7.8-90.2-12.4c-3.3-0.5-6.4,0.7-8.5,3.4l-7,9H924.7z"/>
<path class="st11" d="M2057.8,976l-6.6-8.5c-2.1-2.7-5.2-3.9-8.5-3.4c-28.7,4.3-57.4,8.3-86.2,11.9H2057.8z"/>
<path class="st3" d="M2085,976H2216c-0.2-2.1-1-4.1-2.6-5.7l-27.2-27.2c-2.2-2.2-5.1-3.1-8.2-2.5c-30.2,6-60.5,11.5-90.8,16.5
	c-3.3,0.5-5.8,2.6-7,5.7c-1.2,3.1-0.7,6.3,1.3,8.9L2085,976z"/>
<path class="st11" d="M2323.9,957.6c-22.9,6.1-46,11.8-69.1,17.1c-3.1,0.7-6.2-0.2-8.5-2.4l-26.7-26.7c-2.4-2.4-3.2-5.7-2.3-9
	c1-3.3,3.5-5.6,6.8-6.3c21.6-4.7,43-9.6,64.5-14.9c2.8-0.7,5.6-0.1,7.9,1.7l30.8,24.7c2.7,2.2,3.9,5.5,3.2,9
	C2329.7,954.2,2327.3,956.7,2323.9,957.6z"/>
<path class="st4" d="M1433.6,124.7c0,0,80.8-0.1,100.7-0.1c0.8,0,1.5,0.1,2.3,0.1c0.7,0,1.4,0,2.1,0c0,0,0.1,0,0,0l0,0
	c27-1.1,48.6-23.3,48.6-50.6c0-28-22.7-50.7-50.7-50.7c-0.9,0-1.7,0-2.5,0.1c16.5,8.4,27.8,25.5,27.8,45.2
	c0,27.3-21.6,49.5-48.6,50.6l0,0c0,0,0,0,0,0c-0.7,0-1.4,0-2.1,0c-0.8,0-1.5,0-2.3-0.1c-16.2,0-72.5,0-93.1,0
	C1420.9,122.7,1427,124.7,1433.6,124.7z"/>
<path class="st4" d="M1351.9,130.3h199.8c17.9,0,32.5,14.6,32.5,32.5v43.7c0,17.9-14.6,32.5-32.5,32.5h-199.8
	c-17.9,0-32.5-14.6-32.5-32.5v-43.7C1319.3,144.9,1334,130.3,1351.9,130.3z"/>
<path class="st11" d="M1351.9,141.3h199.8c17.9,0,32.5,14.6,32.5,32.5v43.7c0,17.9-14.6,32.5-32.5,32.5h-199.8
	c-17.9,0-32.5-14.6-32.5-32.5v-43.7C1319.3,155.9,1334,141.3,1351.9,141.3z"/>
<path class="st3" d="M1351.9,141.3h25.6V250h-25.6c-17.9,0-32.5-14.6-32.5-32.5v-43.7C1319.3,155.9,1334,141.3,1351.9,141.3z"/>
<rect x="1360.8" y="141.3" class="st5" width="181.9" height="108.7"/>
<path class="st5" d="M1478,195.7l12.7,12.7c6.5,6.5,6.5,17.1,0,23.6c-6.5,6.5-17.1,6.5-23.6,0l-12.7-12.7l-12.7,12.7
	c-6.5,6.5-17.1,6.5-23.6,0c-6.5-6.5-6.5-17.1,0-23.6l12.7-12.7L1418,183c-6.5-6.5-6.5-17.1,0-23.6c6.5-6.5,17.1-6.5,23.6,0
	l12.7,12.7l12.7-12.7c6.5-6.5,17.1-6.5,23.6,0c6.5,6.5,6.5,17.1,0,23.6L1478,195.7z"/>
<path class="st11" d="M1420.7,109.2c0,0,59.9,0,74.7,0c0.6,0,1.1,0,1.7,0c0.5,0,1,0,1.5,0c0,0,0,0,0,0l0,0c20-0.8,36-17.3,36-37.5
	c0-20.8-16.8-37.6-37.6-37.6c-3.9,0-7.7,0.6-11.2,1.7l0,0c-1.3,0.4-2.5,0.9-3.7,1.4l-68.8,25.6v0c-9.6,3.1-16.5,12.1-16.5,22.6
	C1396.9,98.6,1407.6,109.2,1420.7,109.2z"/>
<path class="st4" d="M1356.7,151.2h27.4c2,0,3.7,1.6,3.7,3.7l0,0c0,2-1.6,3.7-3.7,3.7h-27.4c-2,0-3.7-1.6-3.7-3.7l0,0
	C1353,152.8,1354.7,151.2,1356.7,151.2z"/>
<path class="st4" d="M1356.7,162.3h27.4c2,0,3.7,1.6,3.7,3.7v0c0,2-1.6,3.7-3.7,3.7h-27.4c-2,0-3.7-1.6-3.7-3.7v0
	C1353,164,1354.7,162.3,1356.7,162.3z"/>
<path class="st4" d="M1524.1,151.2h27.4c2,0,3.7,1.6,3.7,3.7l0,0c0,2-1.6,3.7-3.7,3.7h-27.4c-2,0-3.7-1.6-3.7-3.7l0,0
	C1520.4,152.8,1522,151.2,1524.1,151.2z"/>
<path class="st4" d="M1524.1,162.3h27.4c2,0,3.7,1.6,3.7,3.7v0c0,2-1.6,3.7-3.7,3.7h-27.4c-2,0-3.7-1.6-3.7-3.7v0
	C1520.4,164,1522,162.3,1524.1,162.3z"/>
<path class="st9" d="M1440.6,258.3h34.5c2.7,0,4.9,2.2,4.9,4.9v0c0,2.7-2.2,4.9-4.9,4.9h-34.5c-2.7,0-4.9-2.2-4.9-4.9v0
	C1435.7,260.5,1437.9,258.3,1440.6,258.3z"/>
<g>
	<path class="st4" d="M1186.6,176.3c17.9,0,32.4,14.5,32.4,32.4c0,17.9-14.5,32.4-32.4,32.4c-17.9,0-32.4-14.5-32.4-32.4
		C1154.2,190.8,1168.7,176.3,1186.6,176.3z"/>
	<path class="st5" d="M1186.6,196.7c6.6,0,12,5.4,12,12c0,6.6-5.4,12-12,12c-6.6,0-12-5.4-12-12
		C1174.6,202.1,1180,196.7,1186.6,196.7z"/>
	
		<ellipse transform="matrix(0.159 -0.9873 0.9873 0.159 694.9493 1429.6248)" class="st4" cx="1186.6" cy="306.9" rx="43.7" ry="43.7"/>
	<path class="st5" d="M1186.6,290.7c9,0,16.2,7.3,16.2,16.2c0,9-7.3,16.2-16.2,16.2c-9,0-16.2-7.3-16.2-16.2
		C1170.4,297.9,1177.6,290.7,1186.6,290.7z"/>
</g>
<g>
	<path class="st4" d="M1712.3,176.3c17.9,0,32.4,14.5,32.4,32.4c0,17.9-14.5,32.4-32.4,32.4c-17.9,0-32.4-14.5-32.4-32.4
		C1680,190.8,1694.5,176.3,1712.3,176.3z"/>
	<path class="st5" d="M1712.3,196.7c6.6,0,12,5.4,12,12c0,6.6-5.4,12-12,12s-12-5.4-12-12C1700.3,202.1,1705.7,196.7,1712.3,196.7z"
		/>
	
		<ellipse transform="matrix(0.8232 -0.5678 0.5678 0.8232 128.4973 1026.4489)" class="st4" cx="1712.3" cy="306.9" rx="43.7" ry="43.7"/>
	<path class="st5" d="M1712.3,290.7c9,0,16.2,7.3,16.2,16.2c0,9-7.3,16.2-16.2,16.2c-9,0-16.2-7.3-16.2-16.2
		C1696.1,297.9,1703.4,290.7,1712.3,290.7z"/>
</g>
<path class="st7" d="M1061.2,485.4c3.5-22.8,15.9-44.2,36.3-58.2l160.1-110.2c34.8-24,81.3-18.8,110.2,10.1
	c-30.4-20.6-71.8-21.8-103.8,0.2l-170,117.1C1078.8,454.9,1067.7,469.3,1061.2,485.4z"/>
<ellipse transform="matrix(0.7071 -0.7071 0.7071 0.7071 -113.5763 942.8461)" class="st4" cx="1081.3" cy="608.5" rx="145.5" ry="145.5"/>
<path class="st9" d="M1134.2,545.7L1134.2,545.7c22.3,38.7,9,88.6-29.7,110.9l-61.1,35.3c-38.7,22.3-88.6,9-110.9-29.7l0,0
	c-22.3-38.7-9-88.6,29.7-110.9l61.1-35.3C1061.9,493.7,1111.8,507,1134.2,545.7z"/>
<path class="st9" d="M1126.2,564.8L1126.2,564.8c18.4-12.6,43.7-7.8,56.2,10.5l58.2,85c12.6,18.4,7.8,43.7-10.5,56.2l0,0
	c-18.4,12.6-43.7,7.8-56.2-10.5l-58.2-85C1103.1,602.6,1107.9,577.3,1126.2,564.8z"/>
<path class="st13" d="M1194,654.7L1194,654.7c4.1,24.1,0.4,47.9-9.2,68.7c-29.4-23.8-68.4-35.3-108.3-28.6L960,714.5
	c-31.6,5.4-58.8,21.4-78.6,43.7c-9.6-13.7-16.4-29.7-19.3-47.2l0,0c-10.8-63.7,32.4-124.6,96.1-135.4l100.5-17.1
	C1122.3,547.8,1183.2,591,1194,654.7z"/>
<path class="st9" d="M1132.1,650.1L1132.1,650.1c16-15.4,41.7-15,57.2,1l71.5,74.1c15.4,16,15,41.7-1,57.2l0,0
	c-16,15.4-41.7,15-57.2-1l-71.5-74.1C1115.6,691.3,1116.1,665.6,1132.1,650.1z"/>
<path class="st9" d="M1059.2,644.3L1059.2,644.3c23.7-1.1,44.1,17.4,45.2,41.1l5.1,109.9c1.1,23.7-17.4,44.1-41.1,45.2h0
	c-23.7,1.1-44.1-17.4-45.2-41.1l-5.1-109.9C1016.9,665.7,1035.4,645.4,1059.2,644.3z"/>
<path class="st13" d="M1074.6,738.4L1074.6,738.4c23.5,3.2,40.2,25.1,36.9,48.7l-14.9,109c-3.2,23.5-25.1,40.2-48.7,36.9h0
	c-23.5-3.2-40.2-25.1-36.9-48.7l14.9-109C1029.2,751.7,1051.1,735.1,1074.6,738.4z"/>
<path class="st9" d="M985.1,648.6L985.1,648.6c-21.9-7.1-45.7,5.1-52.7,27.1l-32.7,101.6c-7.1,21.9,5.1,45.7,27.1,52.7l0,0
	c21.9,7.1,45.7-5.1,52.7-27.1l32.7-101.6C1019.2,679.4,1007,655.7,985.1,648.6z"/>
<path class="st13" d="M946.7,732.8L946.7,732.8c-22.9-3-44,13.3-46.9,36.2l-13.7,105.9c-3,22.9,13.3,44,36.2,46.9h0
	c22.9,3,44-13.3,46.9-36.2l13.7-105.9C985.9,756.9,969.6,735.7,946.7,732.8z"/>
<path class="st9" d="M829.1,754.4L829.1,754.4c-12.1-16-8.9-39.1,7.1-51.2l37.2-28.1c16-12.1,39.1-8.9,51.2,7.1l0,0
	c12.1,16,8.9,39.1-7.2,51.2l-37.2,28.1C864.3,773.6,841.2,770.4,829.1,754.4z"/>
<path class="st13" d="M864.2,697.8L864.2,697.8c18.9,6.8,28.9,27.8,22.1,46.7l-31.3,87.7c-6.7,18.9-27.8,28.9-46.7,22.1l0,0
	c-18.9-6.7-28.9-27.8-22.1-46.7l31.3-87.7C824.2,701,845.3,691.1,864.2,697.8z"/>
<path class="st9" d="M1775.7,545.7L1775.7,545.7c-22.3,38.7-9,88.6,29.7,110.9l61.1,35.3c38.7,22.3,88.6,9,110.9-29.7l0,0
	c22.3-38.7,9-88.6-29.7-110.9l-61.1-35.3C1848,493.7,1798.1,507,1775.7,545.7z"/>
<path class="st9" d="M1783.7,564.8L1783.7,564.8c-18.4-12.6-43.7-7.8-56.2,10.5l-58.2,85c-12.6,18.4-7.8,43.7,10.5,56.2h0
	c18.4,12.6,43.7,7.8,56.2-10.5l58.2-85C1806.8,602.6,1802,577.3,1783.7,564.8z"/>
<path class="st13" d="M1715.9,654.7L1715.9,654.7c-4.1,24.1-0.4,47.9,9.2,68.7c29.4-23.8,68.4-35.3,108.3-28.6l116.5,19.8
	c31.6,5.4,58.8,21.4,78.6,43.7c9.6-13.7,16.4-29.7,19.3-47.2l0,0c10.8-63.7-32.4-124.6-96.1-135.4l-100.5-17.1
	C1787.6,547.8,1726.7,591,1715.9,654.7z"/>
<path class="st9" d="M1784,643.6L1784,643.6c-18.2-11.7-42.6-6.4-54.3,11.7l-54.2,84.1c-11.7,18.2-6.4,42.6,11.7,54.3l0,0
	c18.2,11.7,42.6,6.4,54.3-11.8l54.2-84.1C1807.5,679.7,1802.2,655.3,1784,643.6z"/>
<path class="st9" d="M2057.7,771.9L2057.7,771.9c18.2-8.6,26.1-30.4,17.5-48.6l-19.8-42.1c-8.6-18.2-30.4-26-48.6-17.5l0,0
	c-18.2,8.6-26,30.4-17.5,48.6l19.8,42.1C2017.7,772.6,2039.5,780.5,2057.7,771.9z"/>
<path class="st13" d="M1711.2,720.8L1711.2,720.8c-21.4-2.6-41.1,12.7-43.8,34.2l-12.2,99.3c-2.6,21.4,12.8,41.1,34.2,43.8h0
	c21.4,2.6,41.1-12.8,43.8-34.2l12.2-99.3C1748,743.1,1732.6,723.4,1711.2,720.8z"/>
<path class="st9" d="M1866.5,642.8L1866.5,642.8c-23.1-5.7-46.6,8.5-52.3,31.5l-26.5,106.8c-5.7,23.1,8.5,46.6,31.5,52.3h0
	c23.1,5.7,46.6-8.5,52.3-31.5l26.5-106.8C1903.7,672,1889.5,648.5,1866.5,642.8z"/>
<path class="st13" d="M1833,732L1833,732c-23.7-1.4-44.3,16.8-45.7,40.5l-6.6,109.8c-1.4,23.7,16.8,44.3,40.5,45.7h0
	c23.7,1.4,44.3-16.8,45.7-40.5l6.6-109.8C1874.9,754,1856.7,733.4,1833,732z"/>
<path class="st13" d="M2053,705.5L2053,705.5c-19.9-2.8-38.5,11.1-41.3,31l-13.1,92.1c-2.8,19.9,11.1,38.5,31,41.3l0,0
	c19.9,2.8,38.5-11.1,41.3-31l13.1-92.1C2086.9,727,2072.9,708.4,2053,705.5z"/>
<path class="st9" d="M1953.4,659.5L1953.4,659.5c22.7,4.3,37.7,26.4,33.4,49l-19.9,104.9c-4.3,22.7-26.4,37.7-49,33.4h0
	c-22.6-4.3-37.7-26.4-33.4-49l19.9-104.9C1908.7,670.2,1930.8,655.2,1953.4,659.5z"/>
<path class="st13" d="M1946.8,751.8L1946.8,751.8c21.5,8.4,32.2,32.8,23.9,54.3l-38.7,99.5c-8.4,21.5-32.8,32.2-54.3,23.9h0
	c-21.5-8.4-32.2-32.8-23.9-54.3l38.7-99.5C1900.9,754.2,1925.4,743.4,1946.8,751.8z"/>
<rect x="1404.5" y="141.3" class="st7" width="10.7" height="108.7"/>
<rect x="1428.1" y="141.3" class="st7" width="7.4" height="108.7"/>
<path class="st4" d="M1486,164.1L1486,164.1c3.9,3.9,3.9,10.2,0,14.1l-17.5,17.5l17.5,17.5c3.9,3.9,3.9,10.2,0,14.1l0,0
	c-3.9,3.9-10.2,3.9-14.1,0l-17.5-17.5l-17.5,17.5c-3.9,3.9-10.2,3.9-14.1,0l0,0c-3.9-3.9-3.9-10.2,0-14.1l17.5-17.5l-17.5-17.5
	c-3.9-3.9-3.9-10.2,0-14.1l0,0c3.9-3.9,10.2-3.9,14.1,0l17.5,17.5l17.5-17.5C1475.7,160.2,1482.1,160.2,1486,164.1z"/>
<path class="st2" d="M1482.4,167.7c-1.9-1.9-5.1-1.9-7,0l-21,21l-21-21c-1.9-1.9-5.1-1.9-7,0c-1.9,1.9-1.9,5.1,0,7l21,21l-21,21
	c-1.9,1.9-1.9,5.1,0,7c1.9,1.9,5.1,1.9,7,0l21-21l21,21c1.9,1.9,5.1,1.9,7,0c1.9-1.9,1.9-5.1,0-7l-21-21l21-21
	C1484.3,172.7,1484.3,169.6,1482.4,167.7z"/>
<path class="st4" d="M1486,164L1486,164c2.2,2.2,3.2,5.2,2.9,8.1c-0.2-2.2-1.2-4.3-2.9-6l0,0c-3.9-3.9-10.2-3.9-14.1,0l-17.5,17.5
	l-17.5-17.5c-3.9-3.9-10.2-3.9-14.1,0l0,0c-1.7,1.7-2.6,3.8-2.9,6c-0.3-2.9,0.6-5.9,2.9-8.1l0,0c3.9-3.9,10.2-3.9,14.1,0l17.5,17.5
	l17.5-17.5C1475.7,160.1,1482.1,160.1,1486,164L1486,164z M1469.6,196.6l16.4,16.4c2.2,2.2,3.2,5.2,2.9,8.1c-0.2-2.2-1.2-4.3-2.9-6
	l-17.5-17.5L1469.6,196.6L1469.6,196.6z M1419.9,221.2c-0.3-2.9,0.6-5.9,2.9-8.1l16.4-16.4l1.1,1.1l-17.5,17.5
	C1421.1,216.8,1420.2,219,1419.9,221.2z"/>
<path class="st4" d="M1503.2,378.6L1503.2,378.6c0,9.5-7.7,17.2-17.2,17.2h-63c-9.5,0-17.2-7.7-17.2-17.2v0
	c0-9.5,7.7-17.2,17.2-17.2h63C1495.4,361.4,1503.2,369.1,1503.2,378.6z"/>
<path class="st5" d="M1481.4,378.6L1481.4,378.6c0,5.2-4.3,9.5-9.5,9.5h-34.8c-5.2,0-9.5-4.3-9.5-9.5v0c0-5.2,4.3-9.5,9.5-9.5h34.8
	C1477.1,369.1,1481.4,373.4,1481.4,378.6z"/>
<path class="st4" d="M1309.4,412.6c15.6,0,25.8,12.7,22.7,28.3c-3.1,15.6-18.3,28.3-33.9,28.3c-15.6,0-25.8-12.7-22.7-28.3
	C1278.6,425.2,1293.8,412.6,1309.4,412.6z"/>
<path class="st4" d="M1960.2,675.2c22.9,8,34.9,32.9,27,55.8c-0.6,1.8-1.4,3.6-2.2,5.3c0.2-18.3-11.2-35.5-29.4-41.8
	c-21-7.3-43.9,2.3-53.6,21.7c0-4.6,0.8-9.4,2.4-14C1912.4,679.3,1937.4,667.2,1960.2,675.2z"/>
<path class="st4" d="M1770.8,671.3c20.4,15.3,24.7,44.2,9.4,64.6c-1.2,1.6-2.5,3.2-3.9,4.6c6-18.3,0-39.2-16.3-51.3
	c-18.8-14-44.8-11.6-60.7,4.8c1.5-4.7,3.8-9.2,6.9-13.3C1721.4,660.2,1750.3,656,1770.8,671.3z"/>
<path class="st4" d="M830.8,703.6c14.1-51.6,56.9-93.3,112.9-102.8l121.2-20.6c72.2-12.2,141.5,33.2,160.2,102.5
	c-30.4-50.8-92.9-81-157.7-70.7l-129.7,20.6C890.8,640,852.5,667.3,830.8,703.6z"/>
<path class="st13" d="M1221.1,713.6L1221.1,713.6c21.1-6.9,44.1,4.7,51,25.8l32.1,97.9c6.9,21.1-4.7,44.1-25.8,51l0,0
	c-21.1,6.9-44.1-4.7-51-25.8l-32.1-97.9C1188.3,743.6,1200,720.6,1221.1,713.6z"/>
<path class="st16" d="M1184,975.8c-9.3-0.5-18.4-1-27.4-1.6c-9.2-0.6-18.3-1.2-27.4-1.9c-1.4-0.1-2.6-0.5-3.7-1.2
	c-1.1-0.7-2-1.6-2.8-2.8c-0.7-1.2-1.1-2.4-1.2-3.7c-0.1-1.3,0.1-2.6,0.6-3.9l9.1-21.9c0.7-1.7,1.9-3,3.3-3.9c1.5-0.9,3.2-1.3,5-1.2
	c8.6,0.6,17.1,1.2,25.5,1.7c8.6,0.5,17.1,1,25.6,1.5c1.3,0.1,2.5,0.4,3.5,1s2,1.4,2.8,2.4c0.8,1,1.3,2.2,1.5,3.3
	c0.2,1.2,0.2,2.4-0.1,3.6l-5.6,22.3c-0.5,2-1.6,3.6-3.1,4.7C1187.9,975.3,1186,975.9,1184,975.8L1184,975.8z M1156.9,969.9
	c9.2,0.6,18.4,1.1,27.4,1.6c1,0.1,1.9-0.2,2.6-0.8c0.7-0.5,1.3-1.3,1.5-2.3l5.6-22.3c0.2-0.6,0.2-1.2,0.1-1.8
	c-0.1-0.6-0.4-1.1-0.7-1.6c-0.4-0.5-0.8-0.9-1.3-1.2c-0.5-0.3-1.1-0.4-1.7-0.5c-8.6-0.4-17.1-0.9-25.6-1.5
	c-8.6-0.5-17.1-1.1-25.6-1.7c-0.9-0.1-1.8,0.1-2.4,0.6c-0.7,0.4-1.3,1.1-1.6,1.9l-9.1,21.9c-0.3,0.6-0.4,1.3-0.3,1.9
	c0,0.6,0.3,1.2,0.6,1.8c0.4,0.6,0.8,1,1.3,1.4c0.5,0.3,1.1,0.5,1.8,0.6C1138.7,968.7,1147.8,969.3,1156.9,969.9z"/>
<path class="st7" d="M1184,940.8c-9.3-0.5-18.4-1-27.4-1.6c-9.2-0.6-18.3-1.2-27.4-1.9c-1.4-0.1-2.6-0.5-3.7-1.2
	c-1.1-0.7-2-1.6-2.8-2.8c-0.7-1.2-1.1-2.4-1.2-3.7c-0.1-1.3,0.1-2.6,0.6-3.9l9.1-21.9c0.7-1.7,1.9-3,3.3-3.9c1.5-0.9,3.2-1.3,5-1.2
	c8.6,0.6,17.1,1.2,25.5,1.7c8.6,0.5,17.1,1,25.6,1.5c1.3,0.1,2.5,0.4,3.5,1c1.1,0.6,2,1.4,2.8,2.4c0.8,1,1.3,2.2,1.5,3.3
	c0.2,1.2,0.2,2.4-0.1,3.6l-5.6,22.3c-0.5,2-1.6,3.6-3.1,4.7C1187.9,940.3,1186,940.9,1184,940.8L1184,940.8z M1156.9,934.9
	c9.2,0.6,18.4,1.1,27.4,1.6c1,0.1,1.9-0.2,2.6-0.8c0.7-0.5,1.3-1.3,1.5-2.3l5.6-22.3c0.2-0.6,0.2-1.2,0.1-1.8
	c-0.1-0.6-0.4-1.1-0.7-1.6c-0.4-0.5-0.8-0.9-1.3-1.2c-0.5-0.3-1.1-0.4-1.7-0.5c-8.6-0.4-17.1-0.9-25.6-1.4
	c-8.6-0.5-17.1-1.1-25.6-1.7c-0.9-0.1-1.8,0.1-2.4,0.6c-0.7,0.4-1.3,1.1-1.6,1.9l-9.1,21.9c-0.3,0.6-0.4,1.3-0.3,1.9
	c0,0.6,0.3,1.2,0.6,1.8c0.4,0.6,0.8,1,1.3,1.4c0.5,0.3,1.1,0.5,1.8,0.6C1138.7,933.7,1147.8,934.3,1156.9,934.9z"/>
<path class="st4" d="M986.2,41.1L986.2,41.1c-3.1,8-12.1,12.1-20.1,9l-47.2-18c-8-3.1-12.1-12.1-9-20.1l0,0C912.9,4,922-0.1,930,3
	l47.2,18C985.2,24,989.3,33.1,986.2,41.1z"/>
<path class="st4" d="M680,383.9L680,383.9c24.6,7.6,40.6,34.6,35.6,60l-37.5,190.6c-5,25.4-29.2,40-53.8,32.4l0,0
	c-24.6-7.6-40.6-34.6-35.6-60l37.5-190.6C631.2,390.8,655.4,376.3,680,383.9z"/>
<path class="st5" d="M619.8,635.3c94.4,10,170.8,45.7,170.8,79.9c0,34.1-76.5,53.7-170.8,43.8c-94.4-10-170.8-45.7-170.8-79.9
	C448.9,644.9,525.4,625.3,619.8,635.3z"/>
<path class="st4" d="M619.8,604.9c81.8,8.7,148.2,39.7,148.2,69.3c0,29.6-66.3,46.6-148.2,38c-81.8-8.7-148.2-39.7-148.2-69.3
	C471.6,613.3,537.9,596.3,619.8,604.9z"/>
<path class="st4" d="M639.2,398.7L639.2,398.7c20.5,6.3,33.9,28.9,29.7,50.1l-8.3,42.1c-4.2,21.2-24.4,33.3-44.9,27h0
	c-20.5-6.3-33.9-28.9-29.7-50.1l8.3-42.1C598.4,404.5,618.6,392.3,639.2,398.7z"/>
<path class="st4" d="M715.3,328L715.3,328c20.5,6.3,33.9,28.9,29.7,50.1l-8.3,42.1c-4.2,21.2-24.4,33.4-44.9,27h0
	c-20.5-6.3-33.9-28.9-29.7-50.1l8.3-42.1C674.6,333.8,694.8,321.7,715.3,328z"/>
<path class="st4" d="M729.4,256.2L729.4,256.2c20.5,6.3,33.9,28.9,29.7,50.1l-12.9,65.6c-4.2,21.2-24.4,33.3-44.9,27l0,0
	c-20.5-6.3-33.9-28.9-29.7-50.1l12.9-65.6C688.7,262,708.9,249.8,729.4,256.2z"/>
<path class="st4" d="M763.8,266.6L763.8,266.6c7.8,21-3.2,43.8-24.6,50.6l-54.5,17.4c-21.4,6.8-45.3-4.7-53.1-25.7v0
	c-7.8-21,3.2-43.8,24.6-50.6l54.5-17.4C732.1,234,756,245.6,763.8,266.6z"/>
<g>
	<path class="st6" d="M737,269.7L737,269.7c2.9,7.8-1.2,16.3-9.2,18.8l-20.3,6.5c-8,2.5-16.8-1.8-19.8-9.6l0,0
		c-2.9-7.8,1.2-16.3,9.2-18.8l20.3-6.5C725.2,257.6,734.1,261.9,737,269.7z"/>
</g>
<path class="st5" d="M728.7,349.6L728.7,349.6c-6.2-2-10.1-8.8-8.7-15.2l4.1-19.6c1.3-6.4,7.5-9.9,13.6-7.9h0
	c6.2,2,10.1,8.8,8.7,15.2l-4.1,19.6C741,348,734.8,351.6,728.7,349.6z"/>
<path class="st0" d="M612.5,451.9L612.5,451.9c-6.2-2-10.1-8.8-8.7-15.1l2-9c1.4-6.4,7.5-9.9,13.7-8h0c6.2,2,10.1,8.8,8.7,15.1l-2,9
	C624.8,450.3,618.6,453.9,612.5,451.9z"/>
<path class="st0" d="M605.6,490.3l-1.2-0.4c-5.8-1.9-9.5-8.3-8.2-14.3v0c1.4-6,7.2-9.4,13.1-7.5l1.2,0.4c5.8,1.9,9.5,8.3,8.2,14.3v0
	C617.3,488.7,611.4,492.1,605.6,490.3z"/>
<path class="st4" d="M711.8,450.4L711.8,450.4c12.3,3.8,20.3,17.3,17.8,30l-12.9,65.8c-2.5,12.7-14.6,20-26.9,16.2l0,0
	c-12.3-3.8-20.3-17.3-17.8-30l12.9-65.8C687.4,453.9,699.5,446.6,711.8,450.4z"/>
<path class="st5" d="M707.3,473.2L707.3,473.2c7.3,2.3,12,10.2,10.6,17.8l-7.7,38.9c-1.5,7.5-8.6,11.8-15.9,9.6l0,0
	c-7.3-2.2-12-10.2-10.5-17.8l7.7-38.9C692.8,475.3,700,471,707.3,473.2z"/>
<path class="st4" d="M1573,196.6l-17.1-9.8v19.7L1573,196.6L1573,196.6z M1566.2,188.7l13.7,7.9l-27.4,15.8v-31.6L1566.2,188.7z"/>
<path class="st4" d="M1333.9,196.6l17.1-9.8v19.7L1333.9,196.6L1333.9,196.6z M1340.8,188.7l-13.7,7.9l27.4,15.8v-31.6L1340.8,188.7
	z"/>
<path class="st4" d="M2334.6,254.7L2334.6,254.7c2.2-13.6,15.1-23,28.7-20.8l80.1,12.9c13.6,2.2,23,15.1,20.8,28.7l0,0
	c-2.2,13.6-15.1,23-28.7,20.8l-80.1-12.9C2341.8,281.3,2332.4,268.3,2334.6,254.7z"/>
<path class="st4" d="M2323.1,475.7L2323.1,475.7c40,0,68.8,32.7,64.1,72.7l-10.4,88.6c-4.7,40-41.2,72.7-81.2,72.7h0
	c-40,0-68.8-32.7-64.1-72.7l10.4-88.6C2246.6,508.4,2283.1,475.7,2323.1,475.7z"/>
<path class="st4" d="M2278,463.2L2278,463.2c24.4,0,42.1,20,39.2,44.4l-6.4,54.2c-2.9,24.4-25.2,44.4-49.7,44.4h0
	c-24.4,0-42.1-20-39.2-44.4l6.4-54.2C2231.2,483.2,2253.6,463.2,2278,463.2z"/>
<path class="st5" d="M2330.7,521.4L2330.7,521.4c15.1,0,26.1,12.4,24.3,27.5l-3.9,33.5c-1.8,15.1-15.6,27.5-30.7,27.5h0
	c-15.1,0-26.1-12.4-24.3-27.5l3.9-33.5C2301.8,533.8,2315.6,521.4,2330.7,521.4z"/>
<path class="st4" d="M2170.2,511.9L2170.2,511.9c20,0,34.5,16.4,32.1,36.4l-5.2,44.3c-2.3,20-20.6,36.4-40.6,36.4h0
	c-20,0-34.5-16.4-32.1-36.4l5.2-44.3C2131.9,528.2,2150.2,511.9,2170.2,511.9z"/>
<path class="st4" d="M2408.6,466.5L2408.6,466.5c20,0,34.5,16.4,32.1,36.4l-5.2,44.3c-2.3,20-20.6,36.4-40.6,36.4h0
	c-20,0-34.4-16.4-32.1-36.4l5.2-44.3C2370.3,482.8,2388.6,466.5,2408.6,466.5z"/>
<rect x="1171.8" y="444.1" class="st2" width="73.7" height="8.8"/>
<rect x="1171.8" y="468.3" class="st2" width="16.8" height="8.8"/>
<path class="st2" d="M1185.9,413.7c3.6,0,6.5,2.9,6.5,6.5c0,3.6-2.9,6.5-6.5,6.5c-3.6,0-6.5-2.9-6.5-6.5
	C1179.4,416.6,1182.3,413.7,1185.9,413.7z"/>
<path class="st2" d="M1203.3,413.7c3.6,0,6.5,2.9,6.5,6.5c0,3.6-2.9,6.5-6.5,6.5c-3.6,0-6.5-2.9-6.5-6.5
	C1196.9,416.6,1199.8,413.7,1203.3,413.7z"/>
<path class="st17" d="M1075.5,768.5L1075.5,768.5c17.1,2.3,29.1,18.2,26.8,35.3l-10.8,79.1c-2.3,17.1-18.2,29.1-35.3,26.8h0
	c-17.1-2.3-29.1-18.2-26.8-35.3l10.8-79.1C1042.5,778.2,1058.4,766.1,1075.5,768.5z"/>
<path class="st17" d="M843.4,722.7L843.4,722.7c12.5,4.6,19,18.6,14.4,31l-21.2,57.8c-4.6,12.5-18.6,19-31,14.4h0
	c-12.5-4.6-19-18.6-14.4-31l21.2-57.8C816.9,724.6,830.9,718.1,843.4,722.7z"/>
<path class="st17" d="M1703.1,733.1L1703.1,733.1c-17.2-1.7-32.6,10.9-34.3,28l-8,79.4c-1.7,17.2,10.9,32.6,28,34.3h0
	c17.2,1.7,32.6-10.9,34.3-28l8-79.4C1732.9,750.2,1720.3,734.8,1703.1,733.1z"/>
<path class="st17" d="M2056.8,728.5L2056.8,728.5c-14.9-2.1-28.8,8.3-30.9,23.2l-9.8,69c-2.1,14.9,8.3,28.8,23.2,30.9l0,0
	c14.9,2.1,28.8-8.3,30.9-23.2l9.8-69C2082.2,744.6,2071.7,730.6,2056.8,728.5z"/>
<path class="st17" d="M1945.1,780.6L1945.1,780.6c17,6.6,25.5,25.9,18.9,42.9l-30.6,78.7c-6.6,17-25.9,25.5-42.9,18.9l0,0
	c-17-6.6-25.5-25.9-18.9-42.9l30.6-78.7C1908.8,782.5,1928.1,774,1945.1,780.6z"/>
<path class="st17" d="M1831.8,751.4L1831.8,751.4c-19-1.1-35.5,13.5-36.7,32.5l-5.3,88.1c-1.1,19,13.5,35.5,32.5,36.7l0,0
	c19,1.1,35.5-13.5,36.7-32.5l5.3-88.1C1865.5,769,1850.8,752.5,1831.8,751.4z"/>
<path class="st17" d="M937.5,752.9L937.5,752.9c-17.8-2.3-34.3,10.4-36.6,28.2l-10.7,82.4c-2.3,17.8,10.4,34.2,28.2,36.5l0,0
	c17.8,2.3,34.2-10.4,36.6-28.2l10.7-82.4C968,771.6,955.3,755.2,937.5,752.9z"/>
<path class="st17" d="M1237.4,729.9L1237.4,729.9c15.8-5.2,33,3.5,38.2,19.3l24.1,73.3c5.2,15.8-3.5,33-19.3,38.2l0,0
	c-15.8,5.2-33-3.5-38.2-19.3l-24.1-73.3C1212.9,752.3,1221.6,735.1,1237.4,729.9z"/>
<path class="st16" d="M1282.5,820.7l23.3-40.4h-46.6L1282.5,820.7L1282.5,820.7z M1301.2,804.6l-18.7,32.4l-37.5-64.9h74.9
	L1301.2,804.6z"/>
<path class="st7" d="M870.6,156c28.9,0,52.4,23.5,52.4,52.4c0,28.9-23.5,52.4-52.4,52.4c-28.9,0-52.4-23.5-52.4-52.4
	C818.2,179.5,841.7,156,870.6,156L870.6,156z M880.1,205.9c5.8-3.3,9.7-9.5,9.7-16.7c0-10.6-8.6-19.2-19.2-19.2
	c-10.6,0-19.2,8.6-19.2,19.2c0,7.1,3.9,13.4,9.7,16.7c-13.1,3.5-23.4,13.9-26.6,27.2c7.9,11.5,21.1,19.1,36.2,19.1
	c15,0,28.3-7.6,36.2-19.1C903.6,219.9,893.3,209.4,880.1,205.9z"/>
<path class="st16" d="M870.6,287.1c28.9,0,52.4,23.5,52.4,52.4c0,28.9-23.5,52.4-52.4,52.4c-28.9,0-52.4-23.5-52.4-52.4
	C818.2,310.5,841.7,287.1,870.6,287.1L870.6,287.1z M880.1,336.9c5.8-3.3,9.7-9.5,9.7-16.7c0-10.6-8.6-19.2-19.2-19.2
	c-10.6,0-19.2,8.6-19.2,19.2c0,7.1,3.9,13.4,9.7,16.7c-13.1,3.5-23.4,13.9-26.6,27.2c7.9,11.5,21.1,19.1,36.2,19.1
	c15,0,28.3-7.6,36.2-19.1C903.6,350.9,893.3,340.4,880.1,336.9z"/>
<path class="st16" d="M870.6,421.1c28.9,0,52.4,23.5,52.4,52.4c0,28.9-23.5,52.4-52.4,52.4c-28.9,0-52.4-23.5-52.4-52.4
	C818.2,444.6,841.7,421.1,870.6,421.1L870.6,421.1z M880.1,471c5.8-3.3,9.7-9.5,9.7-16.7c0-10.6-8.6-19.2-19.2-19.2
	c-10.6,0-19.2,8.6-19.2,19.2c0,7.1,3.9,13.4,9.7,16.7c-13.1,3.5-23.4,13.9-26.6,27.2c7.9,11.5,21.1,19.1,36.2,19.1
	c15,0,28.3-7.6,36.2-19.1C903.6,485,893.3,474.5,880.1,471z"/>
<g>
	<rect x="950.2" y="164" class="st7" width="74.9" height="6.8"/>
	<rect x="950.2" y="182.7" class="st7" width="17.1" height="6.8"/>
	<rect x="950.2" y="320.7" class="st7" width="74.9" height="6.8"/>
	<rect x="950.2" y="339.4" class="st7" width="17.1" height="6.8"/>
	<rect x="950.2" y="355.3" class="st7" width="60.7" height="6.8"/>
	<rect x="950.2" y="372.3" class="st7" width="60.7" height="6.8"/>
	<rect x="950.2" y="410.3" class="st7" width="60.7" height="6.8"/>
	<rect x="950.2" y="443.3" class="st7" width="15.3" height="6.8"/>
	<rect x="950.2" y="466.1" class="st7" width="67" height="6.8"/>
	<rect x="950.2" y="500" class="st7" width="39.4" height="6.8"/>
	<rect x="950.2" y="227.6" class="st7" width="17.1" height="6.8"/>
	<rect x="950.2" y="249.1" class="st7" width="17.1" height="6.8"/>
</g>
<g>
	<path class="st18" d="M1799.6,260.3L1799.6,260.3c2.1-2.7,6-3.1,8.7-1l11.3,9c2.7,2.1,3.1,6,1,8.7v0c-2.1,2.7-6,3.1-8.7,1l-11.4-9
		C1798,266.9,1797.5,263,1799.6,260.3z"/>
	<path class="st18" d="M1816.9,258.8l28.4-0.2c7.4-0.1,13.5,5.9,13.6,13.3v0c0.1,7.4-5.9,13.5-13.3,13.6l-28.4,0.2
		c-7.4,0.1-13.5-5.9-13.6-13.3v0C1803.5,265,1809.5,258.9,1816.9,258.8z"/>
	<path class="st18" d="M1831.7,266.9l168.8-1.5c4.8,0,8.7,3.8,8.7,8.6l0.1,9.6c0,4.8-3.8,8.7-8.6,8.7l-168.8,1.5
		c-4.8,0-8.7-3.8-8.7-8.6l-0.1-9.6C1823.1,270.8,1826.9,266.9,1831.7,266.9z"/>
	<path class="st18" d="M1881.2,297.8L1881.2,297.8c2.2,0.8,3.5,3.2,2.7,5.5l-5.8,17.3c-0.8,2.2-3.2,3.5-5.5,2.7l0,0
		c-2.2-0.8-3.5-3.2-2.7-5.5l5.8-17.3C1876.5,298.3,1878.9,297,1881.2,297.8z"/>
	<path class="st2" d="M1859.7,266.4L1859.7,266.4c13.7-0.1,21.1,11.1,16.3,24.8l-24.6,71.1c-4.8,13.8-19.9,25.2-33.7,25.3h0
		c-13.7,0.1-21.1-11.1-16.3-24.8l24.6-71.1C1830.8,277.9,1845.9,266.5,1859.7,266.4z"/>
	<path class="st18" d="M1882,258.2l99.6-0.9c7.4-0.1,13.5,5.9,13.6,13.3v0c0.1,7.4-5.9,13.5-13.3,13.6l-99.6,0.9
		c-7.4,0.1-13.5-5.9-13.6-13.3v0C1868.7,264.4,1874.7,258.3,1882,258.2z"/>
	<path class="st2" d="M1827.2,296.3l32.2-0.3c7.4-0.1,13.5,5.9,13.6,13.3v0c0.1,7.4-5.9,13.5-13.3,13.6l-32.2,0.3
		c-7.4,0.1-13.5-5.9-13.6-13.3v0C1813.8,302.4,1819.8,296.3,1827.2,296.3z"/>
	<path class="st2" d="M1818.8,263.3l151.8-1.3c6.3-0.1,11.4,5,11.5,11.3l0.2,23c0.1,6.3-5,11.4-11.3,11.5l-151.8,1.3
		c-12.6,0.1-23-10.1-23.1-22.7v0C1796,273.8,1806.2,263.5,1818.8,263.3z"/>
	<path class="st2" d="M1824.6,272.7l168.8-1.5c4.8,0,8.7,3.8,8.7,8.6l0.1,9.6c0,4.7-3.8,8.7-8.6,8.7l-168.8,1.5
		c-4.8,0-8.7-3.8-8.7-8.6l-0.1-9.6C1816,276.7,1819.9,272.8,1824.6,272.7z"/>
	<path class="st2" d="M1829.4,272.7l37.2-0.3c7.4-0.1,13.5,5.9,13.6,13.3v0c0.1,7.4-5.9,13.5-13.3,13.6l-37.2,0.3
		c-7.4,0.1-13.5-5.9-13.6-13.3v0C1816,278.9,1822,272.8,1829.4,272.7z"/>
	<path class="st2" d="M1804.5,367.3l41.2-0.4c6.3-0.1,11.5,5,11.5,11.3l0,0c0.1,6.3-5,11.5-11.3,11.5l-41.2,0.4
		c-6.3,0.1-11.5-5-11.5-11.3l0,0C1793.1,372.6,1798.2,367.4,1804.5,367.3z"/>
	<path class="st2" d="M1867.1,300.3l26.1-0.2c10.5-0.1,19.1,8.4,19.2,18.9l0,0c0.1,10.5-8.4,19.1-18.9,19.2l-26,0.2
		c-10.5,0.1-19.1-8.4-19.2-18.9v0C1848.2,309,1856.6,300.4,1867.1,300.3L1867.1,300.3z M1867.5,308.7c-5.8,0-10.6,4.9-10.5,10.7l0,0
		c0.1,5.8,4.9,10.6,10.7,10.5l25.5-0.2c5.8-0.1,10.6-4.9,10.5-10.7l0,0c-0.1-5.8-4.9-10.6-10.7-10.5L1867.5,308.7z"/>
	<path class="st18" d="M1876.6,318.6l2.1,2.5c1.2,1.4,1.1,3.6-0.4,4.9l0,0c-1.4,1.2-3.6,1.1-4.9-0.4l-2.1-2.5
		c-1.2-1.4-1.1-3.6,0.4-4.9l0,0C1873.2,317,1875.4,317.2,1876.6,318.6z"/>
	<path class="st18" d="M1822,272.5l33.2-0.3c6.6-0.1,12,5.3,12.1,11.9l0,0c0.1,6.6-5.3,12-11.9,12.1l-33.2,0.3
		c-6.6,0.1-12-5.3-12.1-11.9l0,0C1810.1,278,1815.4,272.5,1822,272.5z"/>
	<path class="st2" d="M1828.4,276l22.1-0.2c4.4,0,8,3.5,8,7.9v0c0,4.4-3.5,8-7.9,8l-22.1,0.2c-4.4,0-8-3.5-8-7.9v0
		C1820.5,279.7,1824.1,276.1,1828.4,276z"/>
	<path class="st18" d="M1912,306.9l6.4-11.2c0.7-1.2,2.3-1.7,3.5-1l0,0c1.2,0.7,1.7,2.3,1,3.5l-6.4,11.2c-0.7,1.2-2.3,1.7-3.5,1l0,0
		C1911.7,309.7,1911.3,308.1,1912,306.9z"/>
	<path class="st18" d="M1924,306.8l6.4-11.2c0.7-1.2,2.3-1.7,3.5-1l0,0c1.2,0.7,1.7,2.3,1,3.5l-6.4,11.2c-0.7,1.2-2.3,1.7-3.5,1l0,0
		C1923.8,309.6,1923.3,308,1924,306.8z"/>
	<path class="st18" d="M1936.1,306.7l6.4-11.2c0.7-1.2,2.3-1.7,3.5-1l0,0c1.2,0.7,1.7,2.3,1,3.5l-6.4,11.2c-0.7,1.2-2.3,1.7-3.5,1
		l0,0C1935.8,309.5,1935.4,307.9,1936.1,306.7z"/>
	<path class="st18" d="M1948.1,306.6l6.4-11.2c0.7-1.2,2.3-1.7,3.5-1l0,0c1.2,0.7,1.7,2.3,1,3.5l-6.4,11.2c-0.7,1.2-2.3,1.7-3.5,1
		l0,0C1947.9,309.4,1947.4,307.8,1948.1,306.6z"/>
	<path class="st18" d="M1960.2,306.5l6.4-11.2c0.7-1.2,2.3-1.7,3.5-1l0,0c1.2,0.7,1.7,2.3,1,3.5l-6.4,11.2c-0.7,1.2-2.3,1.7-3.5,1
		l0,0C1959.9,309.3,1959.5,307.7,1960.2,306.5z"/>
	<path class="st18" d="M1972.3,306.4l6.4-11.2c0.7-1.2,2.3-1.7,3.5-1l0,0c1.2,0.7,1.7,2.3,1,3.5l-6.4,11.2c-0.7,1.2-2.3,1.7-3.5,1
		l0,0C1972,309.2,1971.6,307.6,1972.3,306.4z"/>
	<path class="st18" d="M1894.5,279.8l79.6-0.7c1.4,0,2.6,1.1,2.6,2.6l0,0c0,1.4-1.1,2.6-2.6,2.6l-79.6,0.7c-1.4,0-2.6-1.1-2.6-2.6
		l0,0C1891.9,281,1893,279.9,1894.5,279.8z"/>
	<path class="st18" d="M1809.7,353.2l14-38.6c2.9-8.1,12.1-12.6,20.3-9.9l0,0c8.2,2.6,12.5,11.4,9.6,19.6l-14,38.6
		c-2.9,8.1-12.1,12.6-20.3,9.9l0,0C1811.1,370.2,1806.8,361.4,1809.7,353.2z"/>
	<path class="st2" d="M1837.9,312.5c2.6,0,4.6,2,4.6,4.5c0,2.5-2.2,4.4-4.8,4.4c-2.6,0-4.6-2-4.6-4.5
		C1833.2,314.5,1835.3,312.5,1837.9,312.5z"/>
	<path class="st2" d="M1823.6,355.8c2.6,0,4.6,2,4.6,4.5c-0.1,2.5-2.2,4.4-4.8,4.4c-2.6,0-4.6-2-4.6-4.5
		C1818.9,357.8,1821,355.8,1823.6,355.8z"/>
</g>
<rect x="1881.6" y="356.9" class="st2" width="73.7" height="8.8"/>
<rect x="1881.6" y="372.1" class="st2" width="36.9" height="8.8"/>
<path class="st16" d="M1869.4,231.6l12.9-22.4h-25.9L1869.4,231.6L1869.4,231.6z M1879.8,222.6l-10.4,18l-20.8-36h41.6L1879.8,222.6
	z"/>
<g>
	<path class="st7" d="M1785.5,251L1785.5,251c2.1-2.7,6-3.1,8.7-1l6,4.8l-0.5,0.3l-1.8-1.4c-2.7-2.1-6.6-1.7-8.7,1l0,0
		c-1.6,2-1.7,4.6-0.6,6.7l-2.1-1.6C1783.8,257.6,1783.3,253.7,1785.5,251z"/>
	<path class="st7" d="M1802.8,249.5l28.4-0.2c4.6,0,8.7,2.3,11.2,5.8c-2.1-1.4-4.7-2.2-7.5-2.2l-28.4,0.2c-2.5,0-4.8,0.7-6.8,1.9
		l-1.8-1.4c-0.9-0.7-2-1.2-3.2-1.3C1797,250.6,1799.8,249.5,1802.8,249.5L1802.8,249.5z M1792,264.8c-0.7,0.7-1.3,1.5-1.9,2.3
		c-0.4-1.3-0.6-2.6-0.6-4v0l0-0.4c0.2,0.2,0.5,0.5,0.7,0.7L1792,264.8z"/>
	<path class="st7" d="M1845,257.3l16.6-0.1l0,0L1845,257.3L1845,257.3L1845,257.3z M1981.3,256.1l5,0c3.3,0,6.2,1.8,7.7,4.5
		c-1.2-0.6-2.5-0.9-4-0.9l-6.4,0.1C1983,258.4,1982.3,257.2,1981.3,256.1z"/>
	<path class="st7" d="M1859.3,314.2c-0.3,0-0.6-0.1-0.8-0.2h0c-0.2-0.1-0.3-0.1-0.5-0.2c0.5-0.4,1-0.9,1.4-1.4
		C1859.2,313,1859.2,313.6,1859.3,314.2L1859.3,314.2z M1862.5,303.1l0-0.1h0L1862.5,303.1z"/>
	<path class="st7" d="M1845.5,257.1L1845.5,257.1c1.3,0,2.4,0.1,3.6,0.2l-4.1,0l-0.2-0.3L1845.5,257.1L1845.5,257.1z M1789.6,362.6
		c-1.3,0.6-2.6,1.4-3.6,2.4c-0.6-3.5-0.3-7.4,1.2-11.6l16.4-47.3c0.4,2.3,1.4,4.5,2.8,6.3l-15.5,44.6
		C1790.3,358.9,1789.8,360.8,1789.6,362.6z"/>
	<path class="st7" d="M1867.9,248.9l99.6-0.9c4.6,0,8.7,2.3,11.2,5.8c-2.1-1.4-4.7-2.2-7.5-2.2l-99.6,0.9c-4,0-7.6,1.8-10,4.6
		l-6,0.1C1857.6,252.4,1862.4,249,1867.9,248.9z"/>
	<path class="st7" d="M1805.8,311.7c-3.3-2.2-5.7-5.8-6-10c1.2,0.5,2.4,0.9,3.7,1.2c0,0.4-0.1,0.9-0.1,1.3v0
		C1803.5,306.9,1804.4,309.5,1805.8,311.7z"/>
	<path class="st7" d="M1839.8,253.7l27-0.2c-2,0.8-3.8,2.1-5.2,3.7l-16.6,0.1C1843.6,255.7,1841.8,254.5,1839.8,253.7L1839.8,253.7z
		 M1792,264.8c-4,4.2-6.4,9.8-6.3,16v0c0,5.4,2,10.4,5.2,14.3c-5.3-4.2-8.8-10.6-8.9-17.9v0c-0.1-6.2,2.4-11.9,6.4-16.1
		c0.4,0.9,1,1.6,1.8,2.3L1792,264.8L1792,264.8z M1799.3,254.7c0.5-0.1,1.1-0.2,1.6-0.3c-0.4,0.2-0.8,0.4-1.2,0.7L1799.3,254.7z"/>
	<path class="st7" d="M1790.3,358l0.3,0c-0.5,1.6-0.8,3.1-1,4.5c-4.1,1.8-7,5.9-7,10.6l0,0c0,2.2,0.7,4.3,1.8,6.1
		c-3.3-2-5.5-5.6-5.5-9.7l0,0C1778.9,363.3,1784,358.1,1790.3,358L1790.3,358z M1839.2,360.5c0.8,0.7,1.5,1.5,2.1,2.4
		c-0.8-0.5-1.7-0.9-2.7-1.2C1838.8,361.3,1839,360.9,1839.2,360.5z"/>
	<path class="st7" d="M1853.4,320.6h0.2l10.2-0.1c1.2,0.8,2.8,0.8,4,0l11.3-0.1c5.8-0.1,10.6-4.9,10.5-10.7v0c0-2-0.6-3.9-1.6-5.5
		c3.1,1.8,5.3,5.2,5.3,9.1v0c0,5.8-4.7,10.7-10.5,10.7l-25.5,0.2c-1.7,0-3.3-0.4-4.7-1.1L1853.4,320.6z"/>
	<path class="st7" d="M1860.3,316.4c0.1,0.3,0.3,0.7,0.5,1c-0.6-0.2-1.1-0.5-1.5-1l-1.8-2.1c0.7-0.5,1.3-1.2,1.8-1.8
		C1859,313.8,1859.4,315.3,1860.3,316.4z"/>
</g>
<g>
	<path class="st6" d="M2037.9,392.7c22.2,0,40.1,18,40.1,40.1c0,22.2-18,40.1-40.1,40.1c-22.2,0-40.1-18-40.1-40.1
		C1997.8,410.7,2015.7,392.7,2037.9,392.7L2037.9,392.7z M2045.2,430.9c4.4-2.5,7.4-7.3,7.4-12.8c0-8.1-6.6-14.7-14.7-14.7
		c-8.1,0-14.7,6.6-14.7,14.7c0,5.5,3,10.2,7.4,12.8c-10.1,2.7-17.9,10.7-20.4,20.8c6,8.8,16.2,14.6,27.7,14.6
		c11.5,0,21.6-5.8,27.7-14.6C2063.1,441.6,2055.2,433.5,2045.2,430.9z"/>
</g>
<g>
	<path class="st6" d="M2037.9,495.3c22.2,0,40.1,18,40.1,40.1c0,22.2-18,40.1-40.1,40.1c-22.2,0-40.1-18-40.1-40.1
		C1997.8,513.3,2015.7,495.3,2037.9,495.3L2037.9,495.3z M2045.2,533.5c4.4-2.5,7.4-7.3,7.4-12.8c0-8.1-6.6-14.7-14.7-14.7
		c-8.1,0-14.7,6.6-14.7,14.7c0,5.5,3,10.2,7.4,12.8c-10.1,2.7-17.9,10.7-20.4,20.8c6,8.8,16.2,14.6,27.7,14.6
		c11.5,0,21.6-5.8,27.7-14.6C2063.1,544.2,2055.2,536.2,2045.2,533.5z"/>
</g>
<path class="st9" d="M1453.6,272.7h8.5c2.1,0,3.9,1.7,3.9,3.9l0,0c0,2.1-1.7,3.9-3.9,3.9h-8.5c-2.1,0-3.9-1.7-3.9-3.9l0,0
	C1449.8,274.5,1451.5,272.7,1453.6,272.7z"/>
<path class="st5" d="M1318.6,437.1l-17.4-13l-10.2,25.9L1318.6,437.1L1318.6,437.1z M1313.8,426.7l14,10.4l-44.3,20.8l16.3-41.7
	L1313.8,426.7z"/>
<g>
	<rect x="589" y="32.8" class="st6" width="74.9" height="6.8"/>
</g>
<g>
	<rect x="589" y="51.5" class="st6" width="17.1" height="6.8"/>
</g>
<g>
	<g id="S_00000158018571424267921210000004287661616231749020_">
		<path class="st19" d="M1492.9,533.6l-68.2,0c-4.2,0-7.5-3.4-7.5-7.5l0-25.3c0-4.2,3.4-7.5,7.5-7.5h73.2c2.8,0,5-2.3,5-5v-5.1
			h-80.8c-8.4,0-15.1,6.8-15.1,15.1l0,30.3c0,8.4,6.8,15.1,15.1,15.1l68.2,0c4.2,0,7.5,3.4,7.5,7.6v25.2c0,4.2-3.4,7.5-7.5,7.5
			l-73.2,0c-2.8,0-5,2.3-5,5v5c0,0,80.7,0,80.8,0c8.4,0,15.1-6.8,15.1-15.1l0-30.2C1508,540.4,1501.2,533.6,1492.9,533.6z"/>
	</g>
	<g>
		<path class="st19" d="M1482.7,574h-60.6c-2.8,0-5-2.3-5-5v-10.1c0-2.8,2.3-5,5-5h60.6c2.8,0,5,2.3,5,5V569
			C1487.8,571.8,1485.5,574,1482.7,574z"/>
	</g>
	<g>
		<path class="st19" d="M1492.8,523.6h-60.6c-2.8,0-5-2.3-5-5v-10.1c0-2.8,2.3-5,5-5h60.6c2.8,0,5,2.3,5,5v10.1
			C1497.9,521.3,1495.6,523.6,1492.8,523.6z"/>
	</g>
</g>
<path class="st4" d="M2310.4,324.3c95.9,0,159,103.2,140.9,230.5c-18.1,127.3-110.6,230.5-206.5,230.5
	c-95.9,0-159-103.2-140.9-230.5C2122,427.5,2214.5,324.3,2310.4,324.3L2310.4,324.3z M2303.3,374.3c-75.1,0-147.6,80.8-161.8,180.5
	c-14.2,99.7,35.2,180.5,110.4,180.5c75.1,0,147.6-80.8,161.8-180.5C2427.8,455.1,2378.4,374.3,2303.3,374.3z"/>
</svg>
